<svg xmlns="http://www.w3.org/2000/svg" width="40" height="40" viewBox="0 0 40 40">
  <g id="Grupo_1001" data-name="Grupo 1001" transform="translate(-1783 -33)">
    <g id="Grupo_155" data-name="Grupo 155" transform="translate(-68)">
      <circle id="Elipse_11" data-name="Elipse 11" cx="20" cy="20" r="20" transform="translate(1851 33)" fill="#ff892c"/>
    </g>
    <g id="Grupo_156" data-name="Grupo 156" transform="translate(1754.644 4.197)">
      <path id="Caminho_183" data-name="Caminho 183" d="M58.542,55.34c-.338-.152-.674-.309-1.007-.471-.677-.33-5.744-2.961-6.368-3.389a.867.867,0,0,1-.411-.986.685.685,0,0,1,.172-.427,7.63,7.63,0,0,0,1.456-2.657.929.929,0,0,1,.187-.322,2.418,2.418,0,0,0,.5-2.619,2.955,2.955,0,0,1-.087-1.211c0-.222.064-.468.064-.69h-.006c0-.409.011-1.176,0-1.584a4.707,4.707,0,0,0-3.2-4.231,6.539,6.539,0,0,0-2.232-.389h-.042a6.539,6.539,0,0,0-2.232.389,4.707,4.707,0,0,0-3.2,4.231c-.013.408,0,1.176,0,1.584h-.006c0,.222.062.468.064.69a2.955,2.955,0,0,1-.087,1.211,2.418,2.418,0,0,0,.5,2.619.929.929,0,0,1,.187.322,7.63,7.63,0,0,0,1.456,2.657.685.685,0,0,1,.172.427.867.867,0,0,1-.411.986c-.624.428-5.691,3.058-6.368,3.389-.267.13-.657.309-1.008.469a1.4,1.4,0,0,0-.823,1.277v3.924a.539.539,0,0,0,.538.539h0a.539.539,0,0,0,.539-.539v-3.66a.642.642,0,0,1,.375-.583c.617-.285,1.217-.583,1.8-.909s5.559-2.971,6.061-3.43a1.444,1.444,0,0,0,.364-1.213,2.125,2.125,0,0,0-.61-1.715A3.586,3.586,0,0,1,43.865,47.1a1.109,1.109,0,0,0-.39-.748,1.136,1.136,0,0,1-.22-1.69,1.007,1.007,0,0,0,.12-.606c.01-.994-.175-2.31-.085-3.3a3.314,3.314,0,0,1,2.944-3.107,6.211,6.211,0,0,1,2.706,0,3.314,3.314,0,0,1,2.944,3.107c.09.992-.095,2.308-.085,3.3a1.007,1.007,0,0,0,.12.606,1.136,1.136,0,0,1-.22,1.69,1.109,1.109,0,0,0-.39.748A3.586,3.586,0,0,1,50.3,49.028a2.125,2.125,0,0,0-.61,1.715,1.444,1.444,0,0,0,.364,1.213c.5.459,5.471,3.1,6.061,3.43s1.185.624,1.8.909a.642.642,0,0,1,.375.583v3.66a.539.539,0,0,0,.539.539h0a.539.539,0,0,0,.538-.539V56.617A1.4,1.4,0,0,0,58.542,55.34Z" fill="#fff"/>
      <path id="Caminho_184" data-name="Caminho 184" d="M128.774,40.441h2.33v2.33a.583.583,0,0,0,1.165,0v-2.33h2.33a.582.582,0,0,0,.583-.583h0a.583.583,0,0,0-.583-.583h-2.33v-2.33a.583.583,0,0,0-1.165,0v2.33h-2.33a.583.583,0,0,0-.583.583h0A.583.583,0,0,0,128.774,40.441Z" transform="translate(-74.444)" fill="#fff"/>
    </g>
  </g>
</svg>
