<svg xmlns="http://www.w3.org/2000/svg" width="644.975" height="447.228" viewBox="0 0 644.975 447.228">
  <g id="Grupo_1316" data-name="Grupo 1316" transform="translate(1135.69 -141.238)">
    <path id="Caminho_426" data-name="Caminho 426" d="M-1030.026,348.958a11.375,11.375,0,0,1-7.786-13.93,11.23,11.23,0,0,1,5.224-6.85,10.88,10.88,0,0,1,8.45-1.081,11.375,11.375,0,0,1,7.786,13.93,11.235,11.235,0,0,1-5.225,6.85,10.915,10.915,0,0,1-5.488,1.489A11,11,0,0,1-1030.026,348.958Zm-.463-17.027a6.95,6.95,0,0,0-3.233,4.24,7.04,7.04,0,0,0,4.818,8.621,6.879,6.879,0,0,0,8.463-4.908,7.04,7.04,0,0,0-4.819-8.621,6.809,6.809,0,0,0-1.833-.253A6.757,6.757,0,0,0-1030.489,331.93Z" transform="translate(-32.823 -62.443)" fill="#f1ba69"/>
    <path id="Caminho_427" data-name="Caminho 427" d="M-1062.86,415.582l8.26,24.539,44.881,133.392,226.8,1.831-45.5-135.224-7.641-22.714Z" transform="translate(-24.523 -92.375)" fill="#e6e2da"/>
    <path id="Caminho_428" data-name="Caminho 428" d="M-1062.86,415.582l8.26,24.539H-828.42l-7.641-22.714Z" transform="translate(-24.523 -92.375)" fill="#ff7f6b"/>
    <path id="Caminho_429" data-name="Caminho 429" d="M-938.048,482.612l139.938-.128-3.825-11.559-139.938.128Z" transform="translate(-65.26 -111.009)" fill="#fff"/>
    <path id="Caminho_430" data-name="Caminho 430" d="M-789.225,552.294l63.063-.058-16.032-48.445-63.063.058Z" transform="translate(-111.261 -122.076)" fill="#fff"/>
    <path id="Caminho_431" data-name="Caminho 431" d="M-801.074,516.487l63.063-.058-4.182-12.638-63.063.058Z" transform="translate(-111.261 -122.076)" fill="#ff9a7e"/>
    <path id="Caminho_432" data-name="Caminho 432" d="M-908.675,552.4l63.063-.058L-861.644,503.9l-63.063.058Z" transform="translate(-71.04 -122.113)" fill="#fff"/>
    <path id="Caminho_433" data-name="Caminho 433" d="M-920.525,516.6l63.063-.058-4.182-12.638-63.063.058Z" transform="translate(-71.04 -122.113)" fill="#ff7f6b"/>
    <path id="Caminho_434" data-name="Caminho 434" d="M-1004.772,513.567l30.456-.028-2.846-8.6-30.456.028Z" transform="translate(-43.123 -122.463)" fill="#fff"/>
    <path id="Caminho_435" data-name="Caminho 435" d="M-996.984,537.1l30.456-.028-2.846-8.6-30.456.028Z" transform="translate(-45.746 -130.387)" fill="#f1ba69"/>
    <path id="Caminho_436" data-name="Caminho 436" d="M-989.2,560.634l30.456-.028-2.846-8.6-30.456.028Z" transform="translate(-48.368 -138.311)" fill="#fff"/>
    <path id="Caminho_437" data-name="Caminho 437" d="M-981.408,584.167l30.456-.028-2.845-8.6-30.457.028Z" transform="translate(-50.99 -146.235)" fill="#f1ba69"/>
    <path id="Caminho_438" data-name="Caminho 438" d="M-973.62,607.7l30.456-.028-2.845-8.6-30.456.028Z" transform="translate(-53.613 -154.159)" fill="#fff"/>
    <path id="Caminho_439" data-name="Caminho 439" d="M-914.328,751.589h226.964l-4.2-14.111H-918.53Z" transform="translate(-73.12 -200.761)" fill="#5bbfcb"/>
    <path id="Caminho_440" data-name="Caminho 440" d="M-672.8,497.42l15.867,87.012,74.2,6.257,9.386-8.019s68.043-33.572,76.294-16.686a43.373,43.373,0,0,0,13.994,16.788,23.108,23.108,0,0,0,12.562,4.136c19.155.587,88.442,2.315,113.955-2.475,29.733-5.59,20.246-30.6,20.246-30.6s-42.107-99.492-57.2-129.2-47.919-22.145-47.919-22.145l-69.8-9.431c-57-27.17-79.95,21.939-88.606,54.025a170.026,170.026,0,0,0-4.812,24.534l-13.1-30.247-25.078-9.9C-669.112,450.513-672.8,497.42-672.8,497.42Z" transform="translate(-155.862 -82.131)" fill="#f1ba69"/>
    <path id="Caminho_441" data-name="Caminho 441" d="M-631.2,385.226c.007,0,2.392,24.961,2.392,24.961l25.078,9.9,9.123-7.463a18.09,18.09,0,0,0,5.744-8.418c1.2-3.683,1.3-7.641,2.426-11.345.987-3.291,2.973-6.085,6.231-7.234a29.993,29.993,0,0,1,10.245-1.391,2.479,2.479,0,0,0,2.372-3.125,10.34,10.34,0,0,0-4.508-6.244,13.314,13.314,0,0,0-10.089-1.817l-.9.193-.068.014c-.034.007-.074.014-.122.027l-1.838.386A1.743,1.743,0,0,1-587,371.176q.192-.382.385-.826c1.825-4.075,3.845-11.716,3.636-25.422-.19-12.784-3.812-19.137-7.231-22.29a2.538,2.538,0,0,0-4.21,2.333c1.372,8.054-.318,18.889-1.885,26.255a17.055,17.055,0,0,1-6.123,9.665c-3.906,3.029-7.568,1.838-12.082,2.155-4.258.289-8.048,3.091-10.6,6.574a34.608,34.608,0,0,0-4.061,7.751C-630.188,379.925-631.466,382.4-631.2,385.226Z" transform="translate(-169.857 -60.851)" fill="#ffddc4"/>
    <path id="Caminho_442" data-name="Caminho 442" d="M-983.623,550.611l.791,2.272,6.251,17.939,1.973,5.665,6.251,17.939,1.973,5.672,6.251,17.939,1.973,5.665,6.243,17.933,1.981,5.679,9.488,27.239,74.894.082,152.2.172-1.838-5.191-1.2-3.379c0-.007-2.21-6.23-2.21-6.23l-1.23-3.483c0-.007-2.169-6.133-2.169-6.133l-1.271-3.573-2.2-6.223-1.3-3.662-2.109-5.961-1.325-3.745-2.081-5.886-1.352-3.807-2.061-5.817-1.372-3.876-2.034-5.748-1.4-3.944-2.014-5.693-1.413-3.986-2-5.645-1.433-4.047-1.98-5.589-1.446-4.089-1.967-5.562-1.46-4.116-1.953-5.521-.663-1.866-2.554-.014-5.67-.041-4.183-.021-5.67-.041-4.2-.021-5.656-.042-4.2-.027-5.656-.034-4.2-.028-5.663-.034-4.189-.028-6.089-.034-3.338-.021-6.953-.048-2.467-.013-7.953-.048-1.331-.007-8.927-.062h-.52l-34.687-.22-10.264-.062-3.622-.021-11.42-.069-3.622-.028L-921.271,551l-3.615-.021-11.435-.076-3.615-.021-11.434-.076-3.609-.021-11.427-.069-3.629-.028-11.42-.068Z" transform="translate(-51.203 -137.841)" fill="#5bbfcb"/>
    <path id="Caminho_443" data-name="Caminho 443" d="M-425.937,632.876s-3.177-11.543,10.944-8.169,26.831,12.356,32.127,25.446-12.71,18.416-24.713,4.032S-425.937,632.876-425.937,632.876Z" transform="translate(-238.879 -162.582)" fill="#d3716e"/>
    <path id="Caminho_444" data-name="Caminho 444" d="M-586.841,412.084c11.941-11.854,17.288-13.947,18.518-14.236l-1.838.386a1.743,1.743,0,0,1-1.892-2.492q.192-.382.385-.826c-6.514,4.908-12.211,3.917-12.211,3.917l.507,2.7Z" transform="translate(-184.804 -85.416)" fill="#d3716e"/>
    <g id="Grupo_1283" data-name="Grupo 1283" transform="translate(-900.015 416.134)">
      <g id="Grupo_1024" data-name="Grupo 1024" transform="translate(127.05 114.334)">
        <g id="Grupo_1023" data-name="Grupo 1023">
          <path id="Caminho_445" data-name="Caminho 445" d="M-587.347,728.057a1.454,1.454,0,0,0-1.357,2.13,3.272,3.272,0,0,0,2.836,2.129,1.455,1.455,0,0,0,1.357-2.13A3.275,3.275,0,0,0-587.347,728.057Z" transform="translate(588.832 -728.057)" fill="#296b8c"/>
        </g>
      </g>
      <g id="Grupo_1026" data-name="Grupo 1026" transform="translate(123.697 104.673)">
        <g id="Grupo_1025" data-name="Grupo 1025">
          <path id="Caminho_446" data-name="Caminho 446" d="M-592.4,713.493a1.455,1.455,0,0,0-1.357,2.13,3.273,3.273,0,0,0,2.836,2.129,1.454,1.454,0,0,0,1.357-2.13A3.272,3.272,0,0,0-592.4,713.493Z" transform="translate(593.886 -713.493)" fill="#296b8c"/>
        </g>
      </g>
      <g id="Grupo_1028" data-name="Grupo 1028" transform="translate(120.345 95.011)">
        <g id="Grupo_1027" data-name="Grupo 1027">
          <path id="Caminho_447" data-name="Caminho 447" d="M-598.811,701.059a3.264,3.264,0,0,0,2.832,2.127,1.54,1.54,0,0,0,1.034-.352l-1.271-3.572a2.675,2.675,0,0,0-1.243-.337A1.454,1.454,0,0,0-598.811,701.059Z" transform="translate(598.94 -698.925)" fill="#296b8c"/>
        </g>
      </g>
      <g id="Grupo_1030" data-name="Grupo 1030" transform="translate(117.218 114.337)">
        <g id="Grupo_1029" data-name="Grupo 1029">
          <path id="Caminho_448" data-name="Caminho 448" d="M-602.171,728.062a1.454,1.454,0,0,0-1.357,2.13,3.271,3.271,0,0,0,2.836,2.129,1.454,1.454,0,0,0,1.356-2.13A3.273,3.273,0,0,0-602.171,728.062Z" transform="translate(603.655 -728.062)" fill="#296b8c"/>
        </g>
      </g>
      <g id="Grupo_1032" data-name="Grupo 1032" transform="translate(113.865 104.677)">
        <g id="Grupo_1031" data-name="Grupo 1031">
          <path id="Caminho_449" data-name="Caminho 449" d="M-607.225,713.5a1.455,1.455,0,0,0-1.357,2.13,3.273,3.273,0,0,0,2.836,2.129,1.454,1.454,0,0,0,1.357-2.13A3.273,3.273,0,0,0-607.225,713.5Z" transform="translate(608.709 -713.498)" fill="#296b8c"/>
        </g>
      </g>
      <g id="Grupo_1034" data-name="Grupo 1034" transform="translate(110.513 95.017)">
        <g id="Grupo_1033" data-name="Grupo 1033">
          <path id="Caminho_450" data-name="Caminho 450" d="M-612.28,698.934a1.454,1.454,0,0,0-1.357,2.13,3.273,3.273,0,0,0,2.835,2.129,1.455,1.455,0,0,0,1.357-2.131A3.271,3.271,0,0,0-612.28,698.934Z" transform="translate(613.764 -698.934)" fill="#296b8c"/>
        </g>
      </g>
      <g id="Grupo_1036" data-name="Grupo 1036" transform="translate(107.386 114.34)">
        <g id="Grupo_1035" data-name="Grupo 1035">
          <path id="Caminho_451" data-name="Caminho 451" d="M-616.994,728.067a1.454,1.454,0,0,0-1.356,2.13,3.271,3.271,0,0,0,2.835,2.129,1.454,1.454,0,0,0,1.357-2.13A3.273,3.273,0,0,0-616.994,728.067Z" transform="translate(618.478 -728.067)" fill="#296b8c"/>
        </g>
      </g>
      <g id="Grupo_1038" data-name="Grupo 1038" transform="translate(104.033 104.68)">
        <g id="Grupo_1037" data-name="Grupo 1037">
          <path id="Caminho_452" data-name="Caminho 452" d="M-622.049,713.5a1.454,1.454,0,0,0-1.357,2.131,3.272,3.272,0,0,0,2.836,2.129,1.454,1.454,0,0,0,1.357-2.13A3.274,3.274,0,0,0-622.049,713.5Z" transform="translate(623.533 -713.503)" fill="#296b8c"/>
        </g>
      </g>
      <g id="Grupo_1040" data-name="Grupo 1040" transform="translate(100.68 95.02)">
        <g id="Grupo_1039" data-name="Grupo 1039">
          <path id="Caminho_453" data-name="Caminho 453" d="M-627.1,698.939a1.454,1.454,0,0,0-1.357,2.13,3.274,3.274,0,0,0,2.836,2.129,1.455,1.455,0,0,0,1.357-2.131A3.272,3.272,0,0,0-627.1,698.939Z" transform="translate(628.587 -698.939)" fill="#296b8c"/>
        </g>
      </g>
      <g id="Grupo_1042" data-name="Grupo 1042" transform="translate(97.554 114.344)">
        <g id="Grupo_1041" data-name="Grupo 1041">
          <path id="Caminho_454" data-name="Caminho 454" d="M-631.817,728.072a1.455,1.455,0,0,0-1.357,2.131,3.274,3.274,0,0,0,2.836,2.129,1.455,1.455,0,0,0,1.357-2.131A3.274,3.274,0,0,0-631.817,728.072Z" transform="translate(633.301 -728.072)" fill="#296b8c"/>
        </g>
      </g>
      <g id="Grupo_1044" data-name="Grupo 1044" transform="translate(94.201 104.683)">
        <g id="Grupo_1043" data-name="Grupo 1043">
          <path id="Caminho_455" data-name="Caminho 455" d="M-636.872,713.508a1.454,1.454,0,0,0-1.356,2.13,3.271,3.271,0,0,0,2.835,2.129,1.454,1.454,0,0,0,1.357-2.13A3.273,3.273,0,0,0-636.872,713.508Z" transform="translate(638.356 -713.508)" fill="#296b8c"/>
        </g>
      </g>
      <g id="Grupo_1046" data-name="Grupo 1046" transform="translate(90.848 95.023)">
        <g id="Grupo_1045" data-name="Grupo 1045">
          <path id="Caminho_456" data-name="Caminho 456" d="M-641.927,698.944a1.454,1.454,0,0,0-1.357,2.13,3.272,3.272,0,0,0,2.835,2.129,1.454,1.454,0,0,0,1.357-2.13A3.271,3.271,0,0,0-641.927,698.944Z" transform="translate(643.411 -698.944)" fill="#296b8c"/>
        </g>
      </g>
      <g id="Grupo_1048" data-name="Grupo 1048" transform="translate(87.722 114.348)">
        <g id="Grupo_1047" data-name="Grupo 1047">
          <path id="Caminho_457" data-name="Caminho 457" d="M-646.64,728.078a1.454,1.454,0,0,0-1.357,2.13,3.274,3.274,0,0,0,2.836,2.129,1.455,1.455,0,0,0,1.357-2.131A3.273,3.273,0,0,0-646.64,728.078Z" transform="translate(648.125 -728.078)" fill="#296b8c"/>
        </g>
      </g>
      <g id="Grupo_1050" data-name="Grupo 1050" transform="translate(84.369 104.687)">
        <g id="Grupo_1049" data-name="Grupo 1049">
          <path id="Caminho_458" data-name="Caminho 458" d="M-651.7,713.513a1.455,1.455,0,0,0-1.357,2.13,3.271,3.271,0,0,0,2.836,2.129,1.454,1.454,0,0,0,1.357-2.13A3.274,3.274,0,0,0-651.7,713.513Z" transform="translate(653.179 -713.513)" fill="#296b8c"/>
        </g>
      </g>
      <g id="Grupo_1052" data-name="Grupo 1052" transform="translate(81.016 95.027)">
        <g id="Grupo_1051" data-name="Grupo 1051">
          <path id="Caminho_459" data-name="Caminho 459" d="M-656.75,698.949a1.454,1.454,0,0,0-1.357,2.131,3.272,3.272,0,0,0,2.836,2.129,1.454,1.454,0,0,0,1.356-2.13A3.272,3.272,0,0,0-656.75,698.949Z" transform="translate(658.234 -698.949)" fill="#296b8c"/>
        </g>
      </g>
      <g id="Grupo_1054" data-name="Grupo 1054" transform="translate(77.889 114.351)">
        <g id="Grupo_1053" data-name="Grupo 1053">
          <path id="Caminho_460" data-name="Caminho 460" d="M-661.464,728.083a1.454,1.454,0,0,0-1.357,2.13,3.271,3.271,0,0,0,2.835,2.129,1.454,1.454,0,0,0,1.357-2.13A3.271,3.271,0,0,0-661.464,728.083Z" transform="translate(662.948 -728.083)" fill="#296b8c"/>
        </g>
      </g>
      <g id="Grupo_1056" data-name="Grupo 1056" transform="translate(74.537 104.69)">
        <g id="Grupo_1055" data-name="Grupo 1055">
          <path id="Caminho_461" data-name="Caminho 461" d="M-666.518,713.518a1.454,1.454,0,0,0-1.357,2.13,3.271,3.271,0,0,0,2.836,2.129,1.454,1.454,0,0,0,1.356-2.13A3.273,3.273,0,0,0-666.518,713.518Z" transform="translate(668.003 -713.518)" fill="#296b8c"/>
        </g>
      </g>
      <g id="Grupo_1058" data-name="Grupo 1058" transform="translate(71.184 95.03)">
        <g id="Grupo_1057" data-name="Grupo 1057">
          <path id="Caminho_462" data-name="Caminho 462" d="M-671.573,698.954a1.455,1.455,0,0,0-1.357,2.13,3.273,3.273,0,0,0,2.836,2.129,1.454,1.454,0,0,0,1.357-2.13A3.272,3.272,0,0,0-671.573,698.954Z" transform="translate(673.057 -698.954)" fill="#296b8c"/>
        </g>
      </g>
      <g id="Grupo_1060" data-name="Grupo 1060" transform="translate(68.502 114.78)">
        <g id="Grupo_1059" data-name="Grupo 1059">
          <path id="Caminho_463" data-name="Caminho 463" d="M-675.914,728.73a1.163,1.163,0,0,0-1.086,1.7,2.618,2.618,0,0,0,2.268,1.7,1.163,1.163,0,0,0,1.086-1.7A2.617,2.617,0,0,0-675.914,728.73Z" transform="translate(677.101 -728.73)" fill="#296b8c"/>
        </g>
      </g>
      <g id="Grupo_1062" data-name="Grupo 1062" transform="translate(65.149 105.12)">
        <g id="Grupo_1061" data-name="Grupo 1061">
          <path id="Caminho_464" data-name="Caminho 464" d="M-680.968,714.166a1.163,1.163,0,0,0-1.086,1.7,2.617,2.617,0,0,0,2.268,1.7,1.163,1.163,0,0,0,1.085-1.7A2.617,2.617,0,0,0-680.968,714.166Z" transform="translate(682.156 -714.166)" fill="#296b8c"/>
        </g>
      </g>
      <g id="Grupo_1064" data-name="Grupo 1064" transform="translate(61.797 95.459)">
        <g id="Grupo_1063" data-name="Grupo 1063">
          <path id="Caminho_465" data-name="Caminho 465" d="M-686.023,699.6a1.164,1.164,0,0,0-1.086,1.7,2.618,2.618,0,0,0,2.268,1.7,1.163,1.163,0,0,0,1.085-1.7A2.618,2.618,0,0,0-686.023,699.6Z" transform="translate(687.21 -699.601)" fill="#296b8c"/>
        </g>
      </g>
      <g id="Grupo_1066" data-name="Grupo 1066" transform="translate(59.114 115.209)">
        <g id="Grupo_1065" data-name="Grupo 1065">
          <path id="Caminho_466" data-name="Caminho 466" d="M-690.363,729.377a.873.873,0,0,0-.815,1.278,1.964,1.964,0,0,0,1.7,1.278.873.873,0,0,0,.814-1.278A1.964,1.964,0,0,0-690.363,729.377Z" transform="translate(691.254 -729.377)" fill="#296b8c"/>
        </g>
      </g>
      <g id="Grupo_1068" data-name="Grupo 1068" transform="translate(55.762 105.549)">
        <g id="Grupo_1067" data-name="Grupo 1067">
          <path id="Caminho_467" data-name="Caminho 467" d="M-695.418,714.813a.872.872,0,0,0-.814,1.278,1.963,1.963,0,0,0,1.7,1.277.872.872,0,0,0,.814-1.278A1.964,1.964,0,0,0-695.418,714.813Z" transform="translate(696.308 -714.813)" fill="#296b8c"/>
        </g>
      </g>
      <g id="Grupo_1070" data-name="Grupo 1070" transform="translate(52.409 95.889)">
        <g id="Grupo_1069" data-name="Grupo 1069">
          <path id="Caminho_468" data-name="Caminho 468" d="M-700.473,700.249a.872.872,0,0,0-.814,1.278,1.963,1.963,0,0,0,1.7,1.277.873.873,0,0,0,.814-1.279A1.962,1.962,0,0,0-700.473,700.249Z" transform="translate(701.363 -700.249)" fill="#296b8c"/>
        </g>
      </g>
      <g id="Grupo_1072" data-name="Grupo 1072" transform="translate(49.838 115.745)">
        <g id="Grupo_1071" data-name="Grupo 1071">
          <path id="Caminho_469" data-name="Caminho 469" d="M-704.72,730.185a.509.509,0,0,0-.475.746,1.144,1.144,0,0,0,.992.745.509.509,0,0,0,.475-.746A1.145,1.145,0,0,0-704.72,730.185Z" transform="translate(705.239 -730.185)" fill="#296b8c"/>
        </g>
      </g>
      <g id="Grupo_1074" data-name="Grupo 1074" transform="translate(46.486 106.085)">
        <g id="Grupo_1073" data-name="Grupo 1073">
          <path id="Caminho_470" data-name="Caminho 470" d="M-709.774,715.621a.509.509,0,0,0-.474.746,1.143,1.143,0,0,0,.992.745.509.509,0,0,0,.476-.745A1.145,1.145,0,0,0-709.774,715.621Z" transform="translate(710.293 -715.621)" fill="#296b8c"/>
        </g>
      </g>
      <g id="Grupo_1076" data-name="Grupo 1076" transform="translate(43.133 96.424)">
        <g id="Grupo_1075" data-name="Grupo 1075">
          <path id="Caminho_471" data-name="Caminho 471" d="M-714.829,701.056a.509.509,0,0,0-.475.746,1.145,1.145,0,0,0,.992.745.509.509,0,0,0,.475-.746A1.145,1.145,0,0,0-714.829,701.056Z" transform="translate(715.348 -701.056)" fill="#296b8c"/>
        </g>
      </g>
      <g id="Grupo_1078" data-name="Grupo 1078" transform="translate(40.295 116.025)">
        <g id="Grupo_1077" data-name="Grupo 1077">
          <path id="Caminho_472" data-name="Caminho 472" d="M-719.3,730.607a.32.32,0,0,0-.3.469.719.719,0,0,0,.624.468.32.32,0,0,0,.3-.469A.719.719,0,0,0-719.3,730.607Z" transform="translate(719.626 -730.607)" fill="#296b8c"/>
        </g>
      </g>
      <g id="Grupo_1080" data-name="Grupo 1080" transform="translate(36.943 106.365)">
        <g id="Grupo_1079" data-name="Grupo 1079">
          <path id="Caminho_473" data-name="Caminho 473" d="M-724.355,716.043a.32.32,0,0,0-.3.469.719.719,0,0,0,.623.468.32.32,0,0,0,.3-.469A.721.721,0,0,0-724.355,716.043Z" transform="translate(724.681 -716.043)" fill="#296b8c"/>
        </g>
      </g>
      <g id="Grupo_1082" data-name="Grupo 1082" transform="translate(33.59 96.705)">
        <g id="Grupo_1081" data-name="Grupo 1081">
          <path id="Caminho_474" data-name="Caminho 474" d="M-729.41,701.479a.32.32,0,0,0-.3.469.721.721,0,0,0,.624.468.32.32,0,0,0,.3-.469A.72.72,0,0,0-729.41,701.479Z" transform="translate(729.736 -701.479)" fill="#296b8c"/>
        </g>
      </g>
      <g id="Grupo_1084" data-name="Grupo 1084" transform="translate(116.929 85.167)">
        <g id="Grupo_1083" data-name="Grupo 1083">
          <path id="Caminho_475" data-name="Caminho 475" d="M-603.965,686.218a3.266,3.266,0,0,0,2.838,2.127,1.552,1.552,0,0,0,.973-.3l-1.3-3.662a2.523,2.523,0,0,0-1.155-.3A1.459,1.459,0,0,0-603.965,686.218Z" transform="translate(604.09 -684.084)" fill="#296b8c"/>
        </g>
      </g>
      <g id="Grupo_1086" data-name="Grupo 1086" transform="translate(113.574 75.509)">
        <g id="Grupo_1085" data-name="Grupo 1085">
          <path id="Caminho_476" data-name="Caminho 476" d="M-609.02,671.65a3.271,3.271,0,0,0,2.832,2.134,1.568,1.568,0,0,0,.925-.269l-1.325-3.745a2.632,2.632,0,0,0-1.074-.247A1.449,1.449,0,0,0-609.02,671.65Z" transform="translate(609.149 -669.523)" fill="#296b8c"/>
        </g>
      </g>
      <g id="Grupo_1088" data-name="Grupo 1088" transform="translate(110.222 65.851)">
        <g id="Grupo_1087" data-name="Grupo 1087">
          <path id="Caminho_477" data-name="Caminho 477" d="M-614.073,657.089a3.264,3.264,0,0,0,2.832,2.127,1.59,1.59,0,0,0,.872-.234l-1.352-3.807a2.551,2.551,0,0,0-.994-.214A1.45,1.45,0,0,0-614.073,657.089Z" transform="translate(614.202 -654.962)" fill="#296b8c"/>
        </g>
      </g>
      <g id="Grupo_1090" data-name="Grupo 1090" transform="translate(106.87 56.186)">
        <g id="Grupo_1089" data-name="Grupo 1089">
          <path id="Caminho_478" data-name="Caminho 478" d="M-616.856,640.577a2.579,2.579,0,0,0-.919-.186,1.454,1.454,0,0,0-1.352,2.134,3.263,3.263,0,0,0,2.832,2.127,1.6,1.6,0,0,0,.811-.2Z" transform="translate(619.255 -640.391)" fill="#296b8c"/>
        </g>
      </g>
      <g id="Grupo_1092" data-name="Grupo 1092" transform="translate(103.515 46.528)">
        <g id="Grupo_1091" data-name="Grupo 1091">
          <path id="Caminho_479" data-name="Caminho 479" d="M-624.188,627.957a3.287,3.287,0,0,0,2.838,2.134,1.729,1.729,0,0,0,.757-.165l-1.4-3.945a2.572,2.572,0,0,0-.838-.151A1.453,1.453,0,0,0-624.188,627.957Z" transform="translate(624.314 -625.83)" fill="#296b8c"/>
        </g>
      </g>
      <g id="Grupo_1094" data-name="Grupo 1094" transform="translate(100.163 36.87)">
        <g id="Grupo_1093" data-name="Grupo 1093">
          <path id="Caminho_480" data-name="Caminho 480" d="M-629.242,613.4a3.281,3.281,0,0,0,2.838,2.127,1.7,1.7,0,0,0,.7-.138l-1.413-3.986a2.279,2.279,0,0,0-.763-.131A1.454,1.454,0,0,0-629.242,613.4Z" transform="translate(629.367 -611.269)" fill="#296b8c"/>
        </g>
      </g>
      <g id="Grupo_1096" data-name="Grupo 1096" transform="translate(96.811 27.205)">
        <g id="Grupo_1095" data-name="Grupo 1095">
          <path id="Caminho_481" data-name="Caminho 481" d="M-634.295,598.832a3.273,3.273,0,0,0,2.838,2.127,1.806,1.806,0,0,0,.635-.11l-1.433-4.047a2.372,2.372,0,0,0-.683-.1A1.459,1.459,0,0,0-634.295,598.832Z" transform="translate(634.42 -596.698)" fill="#296b8c"/>
        </g>
      </g>
      <g id="Grupo_1098" data-name="Grupo 1098" transform="translate(93.46 17.547)">
        <g id="Grupo_1097" data-name="Grupo 1097">
          <path id="Caminho_482" data-name="Caminho 482" d="M-639.348,584.264a3.271,3.271,0,0,0,2.838,2.134,1.869,1.869,0,0,0,.574-.089l-1.446-4.089a2.314,2.314,0,0,0-.608-.083A1.455,1.455,0,0,0-639.348,584.264Z" transform="translate(639.473 -582.137)" fill="#296b8c"/>
        </g>
      </g>
      <g id="Grupo_1100" data-name="Grupo 1100" transform="translate(90.105 7.888)">
        <g id="Grupo_1099" data-name="Grupo 1099">
          <path id="Caminho_483" data-name="Caminho 483" d="M-644.4,569.7a3.262,3.262,0,0,0,2.831,2.127,1.753,1.753,0,0,0,.521-.076l-1.46-4.116a2.368,2.368,0,0,0-.534-.062A1.449,1.449,0,0,0-644.4,569.7Z" transform="translate(644.532 -567.576)" fill="#296b8c"/>
        </g>
      </g>
      <g id="Grupo_1102" data-name="Grupo 1102" transform="translate(86.956 0.551)">
        <g id="Grupo_1101" data-name="Grupo 1101">
          <path id="Caminho_484" data-name="Caminho 484" d="M-649.279,556.513a3.264,3.264,0,0,0,2.757,1.934,1.911,1.911,0,0,0,.46-.055l-.663-1.865Z" transform="translate(649.279 -556.513)" fill="#296b8c"/>
        </g>
      </g>
      <g id="Grupo_1104" data-name="Grupo 1104" transform="translate(107.096 85.171)">
        <g id="Grupo_1103" data-name="Grupo 1103">
          <path id="Caminho_485" data-name="Caminho 485" d="M-617.431,684.091a1.454,1.454,0,0,0-1.357,2.13,3.273,3.273,0,0,0,2.836,2.129,1.454,1.454,0,0,0,1.356-2.131A3.271,3.271,0,0,0-617.431,684.091Z" transform="translate(618.916 -684.091)" fill="#296b8c"/>
        </g>
      </g>
      <g id="Grupo_1106" data-name="Grupo 1106" transform="translate(103.743 75.511)">
        <g id="Grupo_1105" data-name="Grupo 1105">
          <path id="Caminho_486" data-name="Caminho 486" d="M-622.486,669.527a1.454,1.454,0,0,0-1.357,2.13,3.271,3.271,0,0,0,2.836,2.129,1.454,1.454,0,0,0,1.357-2.13A3.273,3.273,0,0,0-622.486,669.527Z" transform="translate(623.97 -669.527)" fill="#296b8c"/>
        </g>
      </g>
      <g id="Grupo_1108" data-name="Grupo 1108" transform="translate(100.39 65.851)">
        <g id="Grupo_1107" data-name="Grupo 1107">
          <path id="Caminho_487" data-name="Caminho 487" d="M-627.541,654.962a1.455,1.455,0,0,0-1.357,2.131,3.272,3.272,0,0,0,2.836,2.129,1.454,1.454,0,0,0,1.357-2.13A3.273,3.273,0,0,0-627.541,654.962Z" transform="translate(629.025 -654.962)" fill="#296b8c"/>
        </g>
      </g>
      <g id="Grupo_1110" data-name="Grupo 1110" transform="translate(97.037 56.19)">
        <g id="Grupo_1109" data-name="Grupo 1109">
          <path id="Caminho_488" data-name="Caminho 488" d="M-632.6,640.4a1.454,1.454,0,0,0-1.357,2.13,3.272,3.272,0,0,0,2.836,2.129,1.454,1.454,0,0,0,1.356-2.131A3.272,3.272,0,0,0-632.6,640.4Z" transform="translate(634.08 -640.398)" fill="#296b8c"/>
        </g>
      </g>
      <g id="Grupo_1112" data-name="Grupo 1112" transform="translate(93.685 46.53)">
        <g id="Grupo_1111" data-name="Grupo 1111">
          <path id="Caminho_489" data-name="Caminho 489" d="M-637.65,625.834a1.454,1.454,0,0,0-1.357,2.13,3.274,3.274,0,0,0,2.836,2.129,1.455,1.455,0,0,0,1.357-2.13A3.272,3.272,0,0,0-637.65,625.834Z" transform="translate(639.135 -625.834)" fill="#296b8c"/>
        </g>
      </g>
      <g id="Grupo_1114" data-name="Grupo 1114" transform="translate(90.332 36.87)">
        <g id="Grupo_1113" data-name="Grupo 1113">
          <path id="Caminho_490" data-name="Caminho 490" d="M-642.705,611.27a1.454,1.454,0,0,0-1.357,2.13,3.272,3.272,0,0,0,2.836,2.129,1.454,1.454,0,0,0,1.357-2.13A3.273,3.273,0,0,0-642.705,611.27Z" transform="translate(644.189 -611.27)" fill="#296b8c"/>
        </g>
      </g>
      <g id="Grupo_1116" data-name="Grupo 1116" transform="translate(86.979 27.209)">
        <g id="Grupo_1115" data-name="Grupo 1115">
          <path id="Caminho_491" data-name="Caminho 491" d="M-647.76,596.705a1.454,1.454,0,0,0-1.357,2.13,3.271,3.271,0,0,0,2.835,2.129,1.454,1.454,0,0,0,1.357-2.131A3.273,3.273,0,0,0-647.76,596.705Z" transform="translate(649.244 -596.705)" fill="#296b8c"/>
        </g>
      </g>
      <g id="Grupo_1118" data-name="Grupo 1118" transform="translate(83.626 17.549)">
        <g id="Grupo_1117" data-name="Grupo 1117">
          <path id="Caminho_492" data-name="Caminho 492" d="M-652.815,582.141a1.454,1.454,0,0,0-1.357,2.13,3.271,3.271,0,0,0,2.836,2.129,1.454,1.454,0,0,0,1.357-2.13A3.273,3.273,0,0,0-652.815,582.141Z" transform="translate(654.299 -582.141)" fill="#296b8c"/>
        </g>
      </g>
      <g id="Grupo_1120" data-name="Grupo 1120" transform="translate(80.274 7.889)">
        <g id="Grupo_1119" data-name="Grupo 1119">
          <path id="Caminho_493" data-name="Caminho 493" d="M-657.869,567.577a1.454,1.454,0,0,0-1.357,2.13,3.274,3.274,0,0,0,2.836,2.129,1.455,1.455,0,0,0,1.357-2.13A3.272,3.272,0,0,0-657.869,567.577Z" transform="translate(659.353 -567.577)" fill="#296b8c"/>
        </g>
      </g>
      <g id="Grupo_1122" data-name="Grupo 1122" transform="translate(77.103 0.489)">
        <g id="Grupo_1121" data-name="Grupo 1121">
          <path id="Caminho_494" data-name="Caminho 494" d="M-664.133,556.42a3.258,3.258,0,0,0,2.777,2,1.431,1.431,0,0,0,1.406-1.983Z" transform="translate(664.133 -556.42)" fill="#296b8c"/>
        </g>
      </g>
      <g id="Grupo_1124" data-name="Grupo 1124" transform="translate(97.263 85.175)">
        <g id="Grupo_1123" data-name="Grupo 1123">
          <path id="Caminho_495" data-name="Caminho 495" d="M-632.255,684.1a1.454,1.454,0,0,0-1.356,2.13,3.273,3.273,0,0,0,2.835,2.129,1.454,1.454,0,0,0,1.357-2.13A3.271,3.271,0,0,0-632.255,684.1Z" transform="translate(633.739 -684.096)" fill="#296b8c"/>
        </g>
      </g>
      <g id="Grupo_1126" data-name="Grupo 1126" transform="translate(93.91 75.514)">
        <g id="Grupo_1125" data-name="Grupo 1125">
          <path id="Caminho_496" data-name="Caminho 496" d="M-637.31,669.531a1.455,1.455,0,0,0-1.357,2.131,3.273,3.273,0,0,0,2.836,2.129,1.454,1.454,0,0,0,1.356-2.131A3.273,3.273,0,0,0-637.31,669.531Z" transform="translate(638.794 -669.531)" fill="#296b8c"/>
        </g>
      </g>
      <g id="Grupo_1128" data-name="Grupo 1128" transform="translate(90.558 65.854)">
        <g id="Grupo_1127" data-name="Grupo 1127">
          <path id="Caminho_497" data-name="Caminho 497" d="M-642.364,654.967a1.455,1.455,0,0,0-1.357,2.131,3.272,3.272,0,0,0,2.836,2.129,1.454,1.454,0,0,0,1.357-2.13A3.274,3.274,0,0,0-642.364,654.967Z" transform="translate(643.848 -654.967)" fill="#296b8c"/>
        </g>
      </g>
      <g id="Grupo_1130" data-name="Grupo 1130" transform="translate(87.205 56.194)">
        <g id="Grupo_1129" data-name="Grupo 1129">
          <path id="Caminho_498" data-name="Caminho 498" d="M-647.419,640.4a1.454,1.454,0,0,0-1.356,2.13,3.272,3.272,0,0,0,2.835,2.129,1.454,1.454,0,0,0,1.357-2.131A3.271,3.271,0,0,0-647.419,640.4Z" transform="translate(648.903 -640.403)" fill="#296b8c"/>
        </g>
      </g>
      <g id="Grupo_1132" data-name="Grupo 1132" transform="translate(83.852 46.534)">
        <g id="Grupo_1131" data-name="Grupo 1131">
          <path id="Caminho_499" data-name="Caminho 499" d="M-652.474,625.839a1.454,1.454,0,0,0-1.357,2.131A3.273,3.273,0,0,0-651,630.1a1.454,1.454,0,0,0,1.357-2.13A3.271,3.271,0,0,0-652.474,625.839Z" transform="translate(653.958 -625.839)" fill="#296b8c"/>
        </g>
      </g>
      <g id="Grupo_1134" data-name="Grupo 1134" transform="translate(80.5 36.873)">
        <g id="Grupo_1133" data-name="Grupo 1133">
          <path id="Caminho_500" data-name="Caminho 500" d="M-657.528,611.274a1.455,1.455,0,0,0-1.357,2.13,3.272,3.272,0,0,0,2.835,2.13,1.455,1.455,0,0,0,1.357-2.131A3.274,3.274,0,0,0-657.528,611.274Z" transform="translate(659.012 -611.274)" fill="#296b8c"/>
        </g>
      </g>
      <g id="Grupo_1136" data-name="Grupo 1136" transform="translate(77.147 27.213)">
        <g id="Grupo_1135" data-name="Grupo 1135">
          <path id="Caminho_501" data-name="Caminho 501" d="M-662.583,596.71a1.455,1.455,0,0,0-1.357,2.13,3.272,3.272,0,0,0,2.836,2.129,1.454,1.454,0,0,0,1.357-2.13A3.274,3.274,0,0,0-662.583,596.71Z" transform="translate(664.067 -596.71)" fill="#296b8c"/>
        </g>
      </g>
      <g id="Grupo_1138" data-name="Grupo 1138" transform="translate(73.794 17.553)">
        <g id="Grupo_1137" data-name="Grupo 1137">
          <path id="Caminho_502" data-name="Caminho 502" d="M-667.638,582.146a1.454,1.454,0,0,0-1.356,2.13,3.272,3.272,0,0,0,2.835,2.129,1.454,1.454,0,0,0,1.357-2.13A3.273,3.273,0,0,0-667.638,582.146Z" transform="translate(669.122 -582.146)" fill="#296b8c"/>
        </g>
      </g>
      <g id="Grupo_1140" data-name="Grupo 1140" transform="translate(70.441 7.892)">
        <g id="Grupo_1139" data-name="Grupo 1139">
          <path id="Caminho_503" data-name="Caminho 503" d="M-672.693,567.582a1.454,1.454,0,0,0-1.357,2.131,3.272,3.272,0,0,0,2.835,2.129,1.455,1.455,0,0,0,1.358-2.131A3.273,3.273,0,0,0-672.693,567.582Z" transform="translate(674.177 -567.582)" fill="#296b8c"/>
        </g>
      </g>
      <g id="Grupo_1142" data-name="Grupo 1142" transform="translate(67.238 0.426)">
        <g id="Grupo_1141" data-name="Grupo 1141">
          <path id="Caminho_504" data-name="Caminho 504" d="M-679.007,556.326a3.271,3.271,0,0,0,2.811,2.065,1.438,1.438,0,0,0,1.385-2.045Z" transform="translate(679.007 -556.326)" fill="#296b8c"/>
        </g>
      </g>
      <g id="Grupo_1144" data-name="Grupo 1144" transform="translate(87.431 85.178)">
        <g id="Grupo_1143" data-name="Grupo 1143">
          <path id="Caminho_505" data-name="Caminho 505" d="M-647.078,684.1a1.454,1.454,0,0,0-1.357,2.13,3.274,3.274,0,0,0,2.836,2.129,1.455,1.455,0,0,0,1.357-2.13A3.272,3.272,0,0,0-647.078,684.1Z" transform="translate(648.562 -684.101)" fill="#296b8c"/>
        </g>
      </g>
      <g id="Grupo_1146" data-name="Grupo 1146" transform="translate(84.079 75.517)">
        <g id="Grupo_1145" data-name="Grupo 1145">
          <path id="Caminho_506" data-name="Caminho 506" d="M-652.133,669.536a1.455,1.455,0,0,0-1.356,2.131,3.273,3.273,0,0,0,2.835,2.129,1.454,1.454,0,0,0,1.357-2.13A3.273,3.273,0,0,0-652.133,669.536Z" transform="translate(653.617 -669.536)" fill="#296b8c"/>
        </g>
      </g>
      <g id="Grupo_1148" data-name="Grupo 1148" transform="translate(80.726 65.857)">
        <g id="Grupo_1147" data-name="Grupo 1147">
          <path id="Caminho_507" data-name="Caminho 507" d="M-657.188,654.972a1.454,1.454,0,0,0-1.357,2.13,3.271,3.271,0,0,0,2.836,2.129,1.454,1.454,0,0,0,1.356-2.13A3.273,3.273,0,0,0-657.188,654.972Z" transform="translate(658.672 -654.972)" fill="#296b8c"/>
        </g>
      </g>
      <g id="Grupo_1150" data-name="Grupo 1150" transform="translate(77.373 56.197)">
        <g id="Grupo_1149" data-name="Grupo 1149">
          <path id="Caminho_508" data-name="Caminho 508" d="M-662.242,640.408a1.455,1.455,0,0,0-1.357,2.13,3.273,3.273,0,0,0,2.835,2.129,1.455,1.455,0,0,0,1.357-2.13A3.275,3.275,0,0,0-662.242,640.408Z" transform="translate(663.726 -640.408)" fill="#296b8c"/>
        </g>
      </g>
      <g id="Grupo_1152" data-name="Grupo 1152" transform="translate(74.02 46.537)">
        <g id="Grupo_1151" data-name="Grupo 1151">
          <path id="Caminho_509" data-name="Caminho 509" d="M-667.3,625.844a1.454,1.454,0,0,0-1.357,2.13,3.273,3.273,0,0,0,2.836,2.129,1.454,1.454,0,0,0,1.357-2.13A3.272,3.272,0,0,0-667.3,625.844Z" transform="translate(668.781 -625.844)" fill="#296b8c"/>
        </g>
      </g>
      <g id="Grupo_1154" data-name="Grupo 1154" transform="translate(70.668 36.877)">
        <g id="Grupo_1153" data-name="Grupo 1153">
          <path id="Caminho_510" data-name="Caminho 510" d="M-672.352,611.28a1.454,1.454,0,0,0-1.357,2.13,3.273,3.273,0,0,0,2.835,2.129,1.454,1.454,0,0,0,1.357-2.131A3.271,3.271,0,0,0-672.352,611.28Z" transform="translate(673.836 -611.28)" fill="#296b8c"/>
        </g>
      </g>
      <g id="Grupo_1156" data-name="Grupo 1156" transform="translate(67.315 27.216)">
        <g id="Grupo_1155" data-name="Grupo 1155">
          <path id="Caminho_511" data-name="Caminho 511" d="M-677.406,596.715a1.455,1.455,0,0,0-1.357,2.131,3.272,3.272,0,0,0,2.836,2.128,1.454,1.454,0,0,0,1.357-2.13A3.275,3.275,0,0,0-677.406,596.715Z" transform="translate(678.89 -596.715)" fill="#296b8c"/>
        </g>
      </g>
      <g id="Grupo_1158" data-name="Grupo 1158" transform="translate(63.962 17.556)">
        <g id="Grupo_1157" data-name="Grupo 1157">
          <path id="Caminho_512" data-name="Caminho 512" d="M-682.461,582.151a1.455,1.455,0,0,0-1.357,2.13,3.274,3.274,0,0,0,2.836,2.129,1.454,1.454,0,0,0,1.357-2.13A3.274,3.274,0,0,0-682.461,582.151Z" transform="translate(683.945 -582.151)" fill="#296b8c"/>
        </g>
      </g>
      <g id="Grupo_1160" data-name="Grupo 1160" transform="translate(60.609 7.896)">
        <g id="Grupo_1159" data-name="Grupo 1159">
          <path id="Caminho_513" data-name="Caminho 513" d="M-687.516,567.587a1.454,1.454,0,0,0-1.356,2.13,3.272,3.272,0,0,0,2.835,2.129,1.454,1.454,0,0,0,1.357-2.13A3.272,3.272,0,0,0-687.516,567.587Z" transform="translate(689 -567.587)" fill="#296b8c"/>
        </g>
      </g>
      <g id="Grupo_1162" data-name="Grupo 1162" transform="translate(57.384 0.358)">
        <g id="Grupo_1161" data-name="Grupo 1161">
          <path id="Caminho_514" data-name="Caminho 514" d="M-693.862,556.222a3.25,3.25,0,0,0,2.832,2.134,1.445,1.445,0,0,0,1.365-2.107Z" transform="translate(693.862 -556.222)" fill="#296b8c"/>
        </g>
      </g>
      <g id="Grupo_1164" data-name="Grupo 1164" transform="translate(77.599 85.181)">
        <g id="Grupo_1163" data-name="Grupo 1163">
          <path id="Caminho_515" data-name="Caminho 515" d="M-661.9,684.106a1.454,1.454,0,0,0-1.357,2.13,3.274,3.274,0,0,0,2.836,2.129,1.455,1.455,0,0,0,1.357-2.131A3.273,3.273,0,0,0-661.9,684.106Z" transform="translate(663.386 -684.106)" fill="#296b8c"/>
        </g>
      </g>
      <g id="Grupo_1166" data-name="Grupo 1166" transform="translate(74.246 75.521)">
        <g id="Grupo_1165" data-name="Grupo 1165">
          <path id="Caminho_516" data-name="Caminho 516" d="M-666.956,669.542a1.454,1.454,0,0,0-1.357,2.13,3.275,3.275,0,0,0,2.836,2.129,1.455,1.455,0,0,0,1.357-2.13A3.272,3.272,0,0,0-666.956,669.542Z" transform="translate(668.44 -669.542)" fill="#296b8c"/>
        </g>
      </g>
      <g id="Grupo_1168" data-name="Grupo 1168" transform="translate(70.894 65.86)">
        <g id="Grupo_1167" data-name="Grupo 1167">
          <path id="Caminho_517" data-name="Caminho 517" d="M-672.011,654.977a1.454,1.454,0,0,0-1.356,2.131,3.271,3.271,0,0,0,2.835,2.129,1.454,1.454,0,0,0,1.357-2.13A3.273,3.273,0,0,0-672.011,654.977Z" transform="translate(673.495 -654.977)" fill="#296b8c"/>
        </g>
      </g>
      <g id="Grupo_1170" data-name="Grupo 1170" transform="translate(67.541 56.2)">
        <g id="Grupo_1169" data-name="Grupo 1169">
          <path id="Caminho_518" data-name="Caminho 518" d="M-677.065,640.413a1.454,1.454,0,0,0-1.357,2.13,3.271,3.271,0,0,0,2.836,2.129,1.455,1.455,0,0,0,1.357-2.131A3.275,3.275,0,0,0-677.065,640.413Z" transform="translate(678.549 -640.413)" fill="#296b8c"/>
        </g>
      </g>
      <g id="Grupo_1172" data-name="Grupo 1172" transform="translate(64.188 46.54)">
        <g id="Grupo_1171" data-name="Grupo 1171">
          <path id="Caminho_519" data-name="Caminho 519" d="M-682.12,625.849a1.455,1.455,0,0,0-1.357,2.13,3.273,3.273,0,0,0,2.836,2.129,1.455,1.455,0,0,0,1.357-2.13A3.272,3.272,0,0,0-682.12,625.849Z" transform="translate(683.604 -625.849)" fill="#296b8c"/>
        </g>
      </g>
      <g id="Grupo_1174" data-name="Grupo 1174" transform="translate(60.835 36.88)">
        <g id="Grupo_1173" data-name="Grupo 1173">
          <path id="Caminho_520" data-name="Caminho 520" d="M-687.175,611.285a1.454,1.454,0,0,0-1.357,2.131,3.274,3.274,0,0,0,2.836,2.129,1.454,1.454,0,0,0,1.357-2.13A3.271,3.271,0,0,0-687.175,611.285Z" transform="translate(688.659 -611.285)" fill="#296b8c"/>
        </g>
      </g>
      <g id="Grupo_1176" data-name="Grupo 1176" transform="translate(57.483 27.219)">
        <g id="Grupo_1175" data-name="Grupo 1175">
          <path id="Caminho_521" data-name="Caminho 521" d="M-692.23,596.72a1.455,1.455,0,0,0-1.357,2.131,3.273,3.273,0,0,0,2.836,2.129,1.454,1.454,0,0,0,1.356-2.131A3.273,3.273,0,0,0-692.23,596.72Z" transform="translate(693.714 -596.72)" fill="#296b8c"/>
        </g>
      </g>
      <g id="Grupo_1178" data-name="Grupo 1178" transform="translate(54.13 17.559)">
        <g id="Grupo_1177" data-name="Grupo 1177">
          <path id="Caminho_522" data-name="Caminho 522" d="M-697.284,582.156a1.454,1.454,0,0,0-1.357,2.13,3.272,3.272,0,0,0,2.836,2.129,1.454,1.454,0,0,0,1.357-2.13A3.275,3.275,0,0,0-697.284,582.156Z" transform="translate(698.769 -582.156)" fill="#296b8c"/>
        </g>
      </g>
      <g id="Grupo_1180" data-name="Grupo 1180" transform="translate(50.778 7.899)">
        <g id="Grupo_1179" data-name="Grupo 1179">
          <path id="Caminho_523" data-name="Caminho 523" d="M-702.339,567.592a1.454,1.454,0,0,0-1.356,2.131,3.271,3.271,0,0,0,2.835,2.129,1.454,1.454,0,0,0,1.357-2.13A3.273,3.273,0,0,0-702.339,567.592Z" transform="translate(703.823 -567.592)" fill="#296b8c"/>
        </g>
      </g>
      <g id="Grupo_1182" data-name="Grupo 1182" transform="translate(47.532 0.296)">
        <g id="Grupo_1181" data-name="Grupo 1181">
          <path id="Caminho_524" data-name="Caminho 524" d="M-708.716,556.129a.286.286,0,0,0,.021.076,3.263,3.263,0,0,0,2.831,2.127,1.454,1.454,0,0,0,1.358-2.134c-.007-.014-.007-.028-.013-.041Z" transform="translate(708.716 -556.129)" fill="#296b8c"/>
        </g>
      </g>
      <g id="Grupo_1184" data-name="Grupo 1184" transform="translate(67.767 85.185)">
        <g id="Grupo_1183" data-name="Grupo 1183">
          <path id="Caminho_525" data-name="Caminho 525" d="M-676.725,684.111a1.454,1.454,0,0,0-1.356,2.13,3.272,3.272,0,0,0,2.835,2.129,1.454,1.454,0,0,0,1.357-2.131A3.271,3.271,0,0,0-676.725,684.111Z" transform="translate(678.209 -684.111)" fill="#296b8c"/>
        </g>
      </g>
      <g id="Grupo_1186" data-name="Grupo 1186" transform="translate(64.414 75.525)">
        <g id="Grupo_1185" data-name="Grupo 1185">
          <path id="Caminho_526" data-name="Caminho 526" d="M-681.779,669.547a1.454,1.454,0,0,0-1.357,2.13,3.273,3.273,0,0,0,2.836,2.129,1.454,1.454,0,0,0,1.357-2.13A3.272,3.272,0,0,0-681.779,669.547Z" transform="translate(683.263 -669.547)" fill="#296b8c"/>
        </g>
      </g>
      <g id="Grupo_1188" data-name="Grupo 1188" transform="translate(61.061 65.864)">
        <g id="Grupo_1187" data-name="Grupo 1187">
          <path id="Caminho_527" data-name="Caminho 527" d="M-686.834,654.982a1.455,1.455,0,0,0-1.357,2.131,3.273,3.273,0,0,0,2.836,2.128,1.454,1.454,0,0,0,1.357-2.13A3.274,3.274,0,0,0-686.834,654.982Z" transform="translate(688.318 -654.982)" fill="#296b8c"/>
        </g>
      </g>
      <g id="Grupo_1190" data-name="Grupo 1190" transform="translate(57.709 56.204)">
        <g id="Grupo_1189" data-name="Grupo 1189">
          <path id="Caminho_528" data-name="Caminho 528" d="M-691.889,640.418a1.454,1.454,0,0,0-1.356,2.13,3.271,3.271,0,0,0,2.835,2.129,1.454,1.454,0,0,0,1.357-2.131A3.273,3.273,0,0,0-691.889,640.418Z" transform="translate(693.373 -640.418)" fill="#296b8c"/>
        </g>
      </g>
      <g id="Grupo_1192" data-name="Grupo 1192" transform="translate(54.356 46.544)">
        <g id="Grupo_1191" data-name="Grupo 1191">
          <path id="Caminho_529" data-name="Caminho 529" d="M-696.943,625.854a1.454,1.454,0,0,0-1.357,2.13,3.272,3.272,0,0,0,2.836,2.129,1.454,1.454,0,0,0,1.356-2.13A3.271,3.271,0,0,0-696.943,625.854Z" transform="translate(698.428 -625.854)" fill="#296b8c"/>
        </g>
      </g>
      <g id="Grupo_1194" data-name="Grupo 1194" transform="translate(51.003 36.883)">
        <g id="Grupo_1193" data-name="Grupo 1193">
          <path id="Caminho_530" data-name="Caminho 530" d="M-702,611.29a1.454,1.454,0,0,0-1.357,2.131,3.274,3.274,0,0,0,2.836,2.129,1.454,1.454,0,0,0,1.357-2.13A3.272,3.272,0,0,0-702,611.29Z" transform="translate(703.482 -611.29)" fill="#296b8c"/>
        </g>
      </g>
      <g id="Grupo_1196" data-name="Grupo 1196" transform="translate(47.651 27.223)">
        <g id="Grupo_1195" data-name="Grupo 1195">
          <path id="Caminho_531" data-name="Caminho 531" d="M-707.053,596.726a1.454,1.454,0,0,0-1.356,2.13,3.273,3.273,0,0,0,2.835,2.129,1.454,1.454,0,0,0,1.357-2.131A3.271,3.271,0,0,0-707.053,596.726Z" transform="translate(708.537 -596.726)" fill="#296b8c"/>
        </g>
      </g>
      <g id="Grupo_1198" data-name="Grupo 1198" transform="translate(44.298 17.563)">
        <g id="Grupo_1197" data-name="Grupo 1197">
          <path id="Caminho_532" data-name="Caminho 532" d="M-712.108,582.161a1.454,1.454,0,0,0-1.357,2.13,3.271,3.271,0,0,0,2.835,2.129,1.454,1.454,0,0,0,1.357-2.13A3.273,3.273,0,0,0-712.108,582.161Z" transform="translate(713.592 -582.161)" fill="#296b8c"/>
        </g>
      </g>
      <g id="Grupo_1200" data-name="Grupo 1200" transform="translate(40.945 7.902)">
        <g id="Grupo_1199" data-name="Grupo 1199">
          <path id="Caminho_533" data-name="Caminho 533" d="M-717.162,567.6a1.454,1.454,0,0,0-1.357,2.131,3.273,3.273,0,0,0,2.836,2.129,1.454,1.454,0,0,0,1.356-2.13A3.271,3.271,0,0,0-717.162,567.6Z" transform="translate(718.647 -567.597)" fill="#296b8c"/>
        </g>
      </g>
      <g id="Grupo_1202" data-name="Grupo 1202" transform="translate(37.68 0.234)">
        <g id="Grupo_1201" data-name="Grupo 1201">
          <path id="Caminho_534" data-name="Caminho 534" d="M-723.57,556.036a1.058,1.058,0,0,0,.04.137,3.254,3.254,0,0,0,2.838,2.127,1.449,1.449,0,0,0,1.352-2.127c-.014-.034-.027-.076-.041-.11Z" transform="translate(723.57 -556.036)" fill="#296b8c"/>
        </g>
      </g>
      <g id="Grupo_1204" data-name="Grupo 1204" transform="translate(58.38 85.614)">
        <g id="Grupo_1203" data-name="Grupo 1203">
          <path id="Caminho_535" data-name="Caminho 535" d="M-691.175,684.758a1.163,1.163,0,0,0-1.085,1.7,2.619,2.619,0,0,0,2.268,1.7,1.164,1.164,0,0,0,1.086-1.7A2.619,2.619,0,0,0-691.175,684.758Z" transform="translate(692.362 -684.758)" fill="#296b8c"/>
        </g>
      </g>
      <g id="Grupo_1206" data-name="Grupo 1206" transform="translate(55.027 75.954)">
        <g id="Grupo_1205" data-name="Grupo 1205">
          <path id="Caminho_536" data-name="Caminho 536" d="M-696.229,670.194a1.164,1.164,0,0,0-1.086,1.7,2.619,2.619,0,0,0,2.268,1.7,1.164,1.164,0,0,0,1.085-1.7A2.618,2.618,0,0,0-696.229,670.194Z" transform="translate(697.417 -670.194)" fill="#296b8c"/>
        </g>
      </g>
      <g id="Grupo_1208" data-name="Grupo 1208" transform="translate(51.674 66.294)">
        <g id="Grupo_1207" data-name="Grupo 1207">
          <path id="Caminho_537" data-name="Caminho 537" d="M-701.284,655.63a1.163,1.163,0,0,0-1.086,1.7,2.617,2.617,0,0,0,2.268,1.7,1.163,1.163,0,0,0,1.086-1.7A2.618,2.618,0,0,0-701.284,655.63Z" transform="translate(702.471 -655.63)" fill="#296b8c"/>
        </g>
      </g>
      <g id="Grupo_1210" data-name="Grupo 1210" transform="translate(48.321 56.633)">
        <g id="Grupo_1209" data-name="Grupo 1209">
          <path id="Caminho_538" data-name="Caminho 538" d="M-706.339,641.065a1.164,1.164,0,0,0-1.086,1.7,2.618,2.618,0,0,0,2.268,1.7,1.163,1.163,0,0,0,1.086-1.7A2.619,2.619,0,0,0-706.339,641.065Z" transform="translate(707.526 -641.065)" fill="#296b8c"/>
        </g>
      </g>
      <g id="Grupo_1212" data-name="Grupo 1212" transform="translate(44.969 46.973)">
        <g id="Grupo_1211" data-name="Grupo 1211">
          <path id="Caminho_539" data-name="Caminho 539" d="M-711.394,626.5a1.163,1.163,0,0,0-1.085,1.7,2.619,2.619,0,0,0,2.268,1.7,1.163,1.163,0,0,0,1.085-1.7A2.618,2.618,0,0,0-711.394,626.5Z" transform="translate(712.581 -626.501)" fill="#296b8c"/>
        </g>
      </g>
      <g id="Grupo_1214" data-name="Grupo 1214" transform="translate(41.616 37.313)">
        <g id="Grupo_1213" data-name="Grupo 1213">
          <path id="Caminho_540" data-name="Caminho 540" d="M-716.448,611.937a1.164,1.164,0,0,0-1.086,1.7,2.619,2.619,0,0,0,2.268,1.7,1.163,1.163,0,0,0,1.085-1.7A2.617,2.617,0,0,0-716.448,611.937Z" transform="translate(717.635 -611.937)" fill="#296b8c"/>
        </g>
      </g>
      <g id="Grupo_1216" data-name="Grupo 1216" transform="translate(38.263 27.652)">
        <g id="Grupo_1215" data-name="Grupo 1215">
          <path id="Caminho_541" data-name="Caminho 541" d="M-721.5,597.373a1.163,1.163,0,0,0-1.086,1.7,2.618,2.618,0,0,0,2.268,1.7,1.163,1.163,0,0,0,1.086-1.7A2.619,2.619,0,0,0-721.5,597.373Z" transform="translate(722.69 -597.373)" fill="#296b8c"/>
        </g>
      </g>
      <g id="Grupo_1218" data-name="Grupo 1218" transform="translate(34.91 17.992)">
        <g id="Grupo_1217" data-name="Grupo 1217">
          <path id="Caminho_542" data-name="Caminho 542" d="M-726.558,582.809a1.163,1.163,0,0,0-1.086,1.7,2.618,2.618,0,0,0,2.268,1.7,1.164,1.164,0,0,0,1.086-1.7A2.618,2.618,0,0,0-726.558,582.809Z" transform="translate(727.745 -582.809)" fill="#296b8c"/>
        </g>
      </g>
      <g id="Grupo_1220" data-name="Grupo 1220" transform="translate(31.558 8.332)">
        <g id="Grupo_1219" data-name="Grupo 1219">
          <path id="Caminho_543" data-name="Caminho 543" d="M-731.612,568.244a1.163,1.163,0,0,0-1.086,1.7,2.617,2.617,0,0,0,2.268,1.7,1.163,1.163,0,0,0,1.085-1.7A2.619,2.619,0,0,0-731.612,568.244Z" transform="translate(732.8 -568.244)" fill="#296b8c"/>
        </g>
      </g>
      <g id="Grupo_1222" data-name="Grupo 1222" transform="translate(28.252 0.179)">
        <g id="Grupo_1221" data-name="Grupo 1221">
          <path id="Caminho_544" data-name="Caminho 544" d="M-737.783,555.953c.014.062.034.131.054.2a2.624,2.624,0,0,0,2.27,1.7,1.162,1.162,0,0,0,1.081-1.707,1.668,1.668,0,0,0-.068-.172Z" transform="translate(737.783 -555.953)" fill="#296b8c"/>
        </g>
      </g>
      <g id="Grupo_1224" data-name="Grupo 1224" transform="translate(48.992 86.043)">
        <g id="Grupo_1223" data-name="Grupo 1223">
          <path id="Caminho_545" data-name="Caminho 545" d="M-705.624,685.405a.873.873,0,0,0-.814,1.279,1.965,1.965,0,0,0,1.7,1.278.873.873,0,0,0,.815-1.279A1.965,1.965,0,0,0-705.624,685.405Z" transform="translate(706.515 -685.405)" fill="#296b8c"/>
        </g>
      </g>
      <g id="Grupo_1226" data-name="Grupo 1226" transform="translate(45.639 76.383)">
        <g id="Grupo_1225" data-name="Grupo 1225">
          <path id="Caminho_546" data-name="Caminho 546" d="M-710.679,670.841a.873.873,0,0,0-.814,1.279,1.962,1.962,0,0,0,1.7,1.277.872.872,0,0,0,.814-1.278A1.964,1.964,0,0,0-710.679,670.841Z" transform="translate(711.569 -670.841)" fill="#296b8c"/>
        </g>
      </g>
      <g id="Grupo_1228" data-name="Grupo 1228" transform="translate(42.287 66.723)">
        <g id="Grupo_1227" data-name="Grupo 1227">
          <path id="Caminho_547" data-name="Caminho 547" d="M-715.733,656.277a.873.873,0,0,0-.814,1.278,1.963,1.963,0,0,0,1.7,1.277.872.872,0,0,0,.814-1.278A1.963,1.963,0,0,0-715.733,656.277Z" transform="translate(716.624 -656.277)" fill="#296b8c"/>
        </g>
      </g>
      <g id="Grupo_1230" data-name="Grupo 1230" transform="translate(38.934 57.063)">
        <g id="Grupo_1229" data-name="Grupo 1229">
          <path id="Caminho_548" data-name="Caminho 548" d="M-720.788,641.713a.873.873,0,0,0-.815,1.278,1.964,1.964,0,0,0,1.7,1.277.873.873,0,0,0,.815-1.278A1.964,1.964,0,0,0-720.788,641.713Z" transform="translate(721.679 -641.713)" fill="#296b8c"/>
        </g>
      </g>
      <g id="Grupo_1232" data-name="Grupo 1232" transform="translate(35.581 47.403)">
        <g id="Grupo_1231" data-name="Grupo 1231">
          <path id="Caminho_549" data-name="Caminho 549" d="M-725.843,627.149a.872.872,0,0,0-.814,1.278,1.963,1.963,0,0,0,1.7,1.278.873.873,0,0,0,.814-1.278A1.962,1.962,0,0,0-725.843,627.149Z" transform="translate(726.733 -627.149)" fill="#296b8c"/>
        </g>
      </g>
      <g id="Grupo_1234" data-name="Grupo 1234" transform="translate(32.229 37.742)">
        <g id="Grupo_1233" data-name="Grupo 1233">
          <path id="Caminho_550" data-name="Caminho 550" d="M-730.9,612.584a.873.873,0,0,0-.814,1.278,1.964,1.964,0,0,0,1.7,1.278.873.873,0,0,0,.814-1.279A1.964,1.964,0,0,0-730.9,612.584Z" transform="translate(731.788 -612.584)" fill="#296b8c"/>
        </g>
      </g>
      <g id="Grupo_1236" data-name="Grupo 1236" transform="translate(28.876 28.082)">
        <g id="Grupo_1235" data-name="Grupo 1235">
          <path id="Caminho_551" data-name="Caminho 551" d="M-735.952,598.02a.873.873,0,0,0-.815,1.278,1.963,1.963,0,0,0,1.7,1.278.873.873,0,0,0,.815-1.278A1.965,1.965,0,0,0-735.952,598.02Z" transform="translate(736.843 -598.02)" fill="#296b8c"/>
        </g>
      </g>
      <g id="Grupo_1238" data-name="Grupo 1238" transform="translate(25.523 18.421)">
        <g id="Grupo_1237" data-name="Grupo 1237">
          <path id="Caminho_552" data-name="Caminho 552" d="M-741.007,583.456a.873.873,0,0,0-.815,1.278,1.965,1.965,0,0,0,1.7,1.278.873.873,0,0,0,.815-1.278A1.963,1.963,0,0,0-741.007,583.456Z" transform="translate(741.898 -583.456)" fill="#296b8c"/>
        </g>
      </g>
      <g id="Grupo_1240" data-name="Grupo 1240" transform="translate(22.17 8.761)">
        <g id="Grupo_1239" data-name="Grupo 1239">
          <path id="Caminho_553" data-name="Caminho 553" d="M-746.062,568.892a.872.872,0,0,0-.814,1.278,1.963,1.963,0,0,0,1.7,1.277.873.873,0,0,0,.814-1.279A1.963,1.963,0,0,0-746.062,568.892Z" transform="translate(746.952 -568.892)" fill="#296b8c"/>
        </g>
      </g>
      <g id="Grupo_1242" data-name="Grupo 1242" transform="translate(18.832 0.117)">
        <g id="Grupo_1241" data-name="Grupo 1241">
          <path id="Caminho_554" data-name="Caminho 554" d="M-751.985,555.859a.968.968,0,0,0,.061.262,1.96,1.96,0,0,0,1.7,1.28.871.871,0,0,0,.811-1.28,2,2,0,0,0-.108-.248Z" transform="translate(751.985 -555.859)" fill="#296b8c"/>
        </g>
      </g>
      <g id="Grupo_1244" data-name="Grupo 1244" transform="translate(39.716 86.579)">
        <g id="Grupo_1243" data-name="Grupo 1243">
          <path id="Caminho_555" data-name="Caminho 555" d="M-719.981,686.213a.509.509,0,0,0-.475.746,1.145,1.145,0,0,0,.992.745.509.509,0,0,0,.476-.746A1.147,1.147,0,0,0-719.981,686.213Z" transform="translate(720.5 -686.213)" fill="#296b8c"/>
        </g>
      </g>
      <g id="Grupo_1246" data-name="Grupo 1246" transform="translate(36.363 76.919)">
        <g id="Grupo_1245" data-name="Grupo 1245">
          <path id="Caminho_556" data-name="Caminho 556" d="M-725.036,671.649a.509.509,0,0,0-.475.746,1.147,1.147,0,0,0,.993.745.509.509,0,0,0,.475-.746A1.146,1.146,0,0,0-725.036,671.649Z" transform="translate(725.555 -671.649)" fill="#296b8c"/>
        </g>
      </g>
      <g id="Grupo_1248" data-name="Grupo 1248" transform="translate(33.01 67.259)">
        <g id="Grupo_1247" data-name="Grupo 1247">
          <path id="Caminho_557" data-name="Caminho 557" d="M-730.09,657.085a.509.509,0,0,0-.475.746,1.145,1.145,0,0,0,.992.746.509.509,0,0,0,.475-.746A1.144,1.144,0,0,0-730.09,657.085Z" transform="translate(730.609 -657.085)" fill="#296b8c"/>
        </g>
      </g>
      <g id="Grupo_1250" data-name="Grupo 1250" transform="translate(29.658 57.599)">
        <g id="Grupo_1249" data-name="Grupo 1249">
          <path id="Caminho_558" data-name="Caminho 558" d="M-735.145,642.521a.509.509,0,0,0-.475.746,1.145,1.145,0,0,0,.992.745.509.509,0,0,0,.475-.746A1.143,1.143,0,0,0-735.145,642.521Z" transform="translate(735.664 -642.521)" fill="#296b8c"/>
        </g>
      </g>
      <g id="Grupo_1252" data-name="Grupo 1252" transform="translate(26.305 47.938)">
        <g id="Grupo_1251" data-name="Grupo 1251">
          <path id="Caminho_559" data-name="Caminho 559" d="M-740.2,627.956a.509.509,0,0,0-.475.746,1.147,1.147,0,0,0,.992.745.509.509,0,0,0,.476-.745A1.147,1.147,0,0,0-740.2,627.956Z" transform="translate(740.719 -627.956)" fill="#296b8c"/>
        </g>
      </g>
      <g id="Grupo_1254" data-name="Grupo 1254" transform="translate(22.952 38.278)">
        <g id="Grupo_1253" data-name="Grupo 1253">
          <path id="Caminho_560" data-name="Caminho 560" d="M-745.254,613.392a.509.509,0,0,0-.476.746,1.147,1.147,0,0,0,.993.746.509.509,0,0,0,.475-.746A1.146,1.146,0,0,0-745.254,613.392Z" transform="translate(745.774 -613.392)" fill="#296b8c"/>
        </g>
      </g>
      <g id="Grupo_1256" data-name="Grupo 1256" transform="translate(19.599 28.618)">
        <g id="Grupo_1255" data-name="Grupo 1255">
          <path id="Caminho_561" data-name="Caminho 561" d="M-750.309,598.828a.509.509,0,0,0-.475.746,1.145,1.145,0,0,0,.992.746.509.509,0,0,0,.475-.746A1.145,1.145,0,0,0-750.309,598.828Z" transform="translate(750.828 -598.828)" fill="#296b8c"/>
        </g>
      </g>
      <g id="Grupo_1258" data-name="Grupo 1258" transform="translate(16.247 18.957)">
        <g id="Grupo_1257" data-name="Grupo 1257">
          <path id="Caminho_562" data-name="Caminho 562" d="M-755.364,584.264a.509.509,0,0,0-.475.746,1.144,1.144,0,0,0,.992.745.509.509,0,0,0,.475-.746A1.143,1.143,0,0,0-755.364,584.264Z" transform="translate(755.883 -584.264)" fill="#296b8c"/>
        </g>
      </g>
      <g id="Grupo_1260" data-name="Grupo 1260" transform="translate(12.894 9.297)">
        <g id="Grupo_1259" data-name="Grupo 1259">
          <path id="Caminho_563" data-name="Caminho 563" d="M-760.419,569.7a.509.509,0,0,0-.475.746,1.147,1.147,0,0,0,.992.745.509.509,0,0,0,.476-.746A1.145,1.145,0,0,0-760.419,569.7Z" transform="translate(760.938 -569.7)" fill="#296b8c"/>
        </g>
      </g>
      <g id="Grupo_1262" data-name="Grupo 1262" transform="translate(9.542 0.062)">
        <g id="Grupo_1261" data-name="Grupo 1261">
          <path id="Caminho_564" data-name="Caminho 564" d="M-765.986,555.776a.694.694,0,0,0,.041.324,1.153,1.153,0,0,0,.994.744c.405,0,.615-.338.473-.75a1.169,1.169,0,0,0-.176-.31Z" transform="translate(765.991 -555.776)" fill="#296b8c"/>
        </g>
      </g>
      <g id="Grupo_1264" data-name="Grupo 1264" transform="translate(30.173 86.86)">
        <g id="Grupo_1263" data-name="Grupo 1263">
          <path id="Caminho_565" data-name="Caminho 565" d="M-734.561,686.636a.319.319,0,0,0-.3.468.719.719,0,0,0,.623.469.32.32,0,0,0,.3-.469A.718.718,0,0,0-734.561,686.636Z" transform="translate(734.887 -686.636)" fill="#296b8c"/>
        </g>
      </g>
      <g id="Grupo_1266" data-name="Grupo 1266" transform="translate(26.82 77.199)">
        <g id="Grupo_1265" data-name="Grupo 1265">
          <path id="Caminho_566" data-name="Caminho 566" d="M-739.616,672.072a.32.32,0,0,0-.3.468.72.72,0,0,0,.624.468.32.32,0,0,0,.3-.468A.72.72,0,0,0-739.616,672.072Z" transform="translate(739.942 -672.072)" fill="#296b8c"/>
        </g>
      </g>
      <g id="Grupo_1268" data-name="Grupo 1268" transform="translate(23.467 67.539)">
        <g id="Grupo_1267" data-name="Grupo 1267">
          <path id="Caminho_567" data-name="Caminho 567" d="M-744.671,657.507a.32.32,0,0,0-.3.469.721.721,0,0,0,.624.468.32.32,0,0,0,.3-.469A.721.721,0,0,0-744.671,657.507Z" transform="translate(744.997 -657.507)" fill="#296b8c"/>
        </g>
      </g>
      <g id="Grupo_1270" data-name="Grupo 1270" transform="translate(20.115 57.878)">
        <g id="Grupo_1269" data-name="Grupo 1269">
          <path id="Caminho_568" data-name="Caminho 568" d="M-749.725,642.943a.32.32,0,0,0-.3.469.719.719,0,0,0,.623.468.32.32,0,0,0,.3-.469A.719.719,0,0,0-749.725,642.943Z" transform="translate(750.051 -642.943)" fill="#296b8c"/>
        </g>
      </g>
      <g id="Grupo_1272" data-name="Grupo 1272" transform="translate(16.762 48.218)">
        <g id="Grupo_1271" data-name="Grupo 1271">
          <path id="Caminho_569" data-name="Caminho 569" d="M-754.78,628.379a.32.32,0,0,0-.3.468.719.719,0,0,0,.623.469.32.32,0,0,0,.3-.469A.719.719,0,0,0-754.78,628.379Z" transform="translate(755.106 -628.379)" fill="#296b8c"/>
        </g>
      </g>
      <g id="Grupo_1274" data-name="Grupo 1274" transform="translate(13.409 38.558)">
        <g id="Grupo_1273" data-name="Grupo 1273">
          <path id="Caminho_570" data-name="Caminho 570" d="M-759.835,613.815a.32.32,0,0,0-.3.468.721.721,0,0,0,.624.468.32.32,0,0,0,.3-.468A.72.72,0,0,0-759.835,613.815Z" transform="translate(760.161 -613.815)" fill="#296b8c"/>
        </g>
      </g>
      <g id="Grupo_1276" data-name="Grupo 1276" transform="translate(10.056 28.898)">
        <g id="Grupo_1275" data-name="Grupo 1275">
          <path id="Caminho_571" data-name="Caminho 571" d="M-764.889,599.251a.32.32,0,0,0-.3.468.721.721,0,0,0,.624.468.32.32,0,0,0,.3-.468A.719.719,0,0,0-764.889,599.251Z" transform="translate(765.216 -599.251)" fill="#296b8c"/>
        </g>
      </g>
      <g id="Grupo_1278" data-name="Grupo 1278" transform="translate(6.704 19.237)">
        <g id="Grupo_1277" data-name="Grupo 1277">
          <path id="Caminho_572" data-name="Caminho 572" d="M-769.944,584.686a.32.32,0,0,0-.3.469.72.72,0,0,0,.624.468.32.32,0,0,0,.3-.469A.719.719,0,0,0-769.944,584.686Z" transform="translate(770.27 -584.686)" fill="#296b8c"/>
        </g>
      </g>
      <g id="Grupo_1280" data-name="Grupo 1280" transform="translate(3.351 9.577)">
        <g id="Grupo_1279" data-name="Grupo 1279">
          <path id="Caminho_573" data-name="Caminho 573" d="M-775,570.122a.32.32,0,0,0-.3.469.72.72,0,0,0,.624.468.32.32,0,0,0,.3-.469A.721.721,0,0,0-775,570.122Z" transform="translate(775.325 -570.122)" fill="#296b8c"/>
        </g>
      </g>
      <g id="Grupo_1282" data-name="Grupo 1282">
        <g id="Grupo_1281" data-name="Grupo 1281">
          <path id="Caminho_574" data-name="Caminho 574" d="M-780.351,556.068a.716.716,0,0,0,.622.468.322.322,0,0,0,.3-.468.791.791,0,0,0-.332-.385h-.52A.341.341,0,0,0-780.351,556.068Z" transform="translate(780.377 -555.683)" fill="#296b8c"/>
        </g>
      </g>
    </g>
    <path id="Caminho_575" data-name="Caminho 575" d="M-447.4,422.712s104.21-31.377,79.267-46.927l-11.481-1.542V315.668l-15.488-9.809-25.6,14.284-10.1,5.631s10.265,5.858,3.393,31.115c-.852,3.125-1.967,6.547-3.393,10.292l-9.765-2.01S-468.277,375.041-447.4,422.712Z" transform="translate(-229.133 -55.43)" fill="#ffddc4"/>
    <path id="Caminho_576" data-name="Caminho 576" d="M-448.653,632.413l-42.666-10.941a8.772,8.772,0,0,0-8.04,1.969c-7.429,6.646-26.35,21.7-48.488,24.933a1.374,1.374,0,0,0-.866,2.189c2.5,3.374,9.409,9.444,24.507,3.385a.712.712,0,0,1,.682,1.232L-533.9,663.3l18.467.6s34.526,15.408,68.9-2.123S-448.653,632.413-448.653,632.413Z" transform="translate(-197.548 -161.608)" fill="#ffddc4"/>
    <path id="Caminho_577" data-name="Caminho 577" d="M-476.237,617.345s-16.444-11.845-20.724-16.262-8.539,17.3,12.625,25.26S-476.237,617.345-476.237,617.345Z" transform="translate(-213.888 -154.638)" fill="#ffddc4"/>
    <path id="Caminho_578" data-name="Caminho 578" d="M-582.764,719.18l51.577-34.667-64.6-2.116Z" transform="translate(-181.791 -182.215)" fill="#296b8c"/>
    <path id="Caminho_579" data-name="Caminho 579" d="M-524.575,685.587v13.732l-47.506,34.8-4.071-13.862Z" transform="translate(-188.403 -183.289)" fill="#5bbfcb"/>
    <rect id="Retngulo_122" data-name="Retngulo 122" width="90.113" height="11.278" transform="translate(-890 230.533) rotate(-180)" fill="#ff7f6b"/>
    <rect id="Retngulo_123" data-name="Retngulo 123" width="48.885" height="11.278" transform="translate(-890 248.894) rotate(-180)" fill="#5bbfcb"/>
    <g id="Grupo_1284" data-name="Grupo 1284" transform="translate(-842.167 158.406)">
      <path id="Caminho_580" data-name="Caminho 580" d="M-693.163,195.748c0-15.784,12.618-28.627,28.127-28.627s28.126,12.843,28.126,28.627-12.617,28.627-28.126,28.627S-693.163,211.533-693.163,195.748Zm2.653,0c0,14.322,11.427,25.974,25.474,25.974s25.473-11.651,25.473-25.974-11.427-25.974-25.473-25.974S-690.51,181.426-690.51,195.748Z" transform="translate(693.163 -167.121)" fill="#f1ba69"/>
    </g>
    <g id="Grupo_1285" data-name="Grupo 1285" transform="translate(-847.764 141.238)">
      <path id="Caminho_581" data-name="Caminho 581" d="M-668.985,195.782a2.311,2.311,0,0,1-1.435-.5L-701.6,170.749l2.871-3.649,29.448,23.173,42.854-49.035,3.5,3.055-44.3,50.7A2.314,2.314,0,0,1-668.985,195.782Z" transform="translate(701.601 -141.238)" fill="#296b8c"/>
    </g>
    <path id="Caminho_582" data-name="Caminho 582" d="M-806.29,651.579a25.892,25.892,0,0,0,11.071,2.415c10.7-.1,17.934-7.159,16.159-15.765s-11.887-15.5-22.587-15.394a19.306,19.306,0,0,0-11,3.246c5.887,2.725,10.394,7.508,11.523,12.979A11.94,11.94,0,0,1-806.29,651.579Z" transform="translate(-108.771 -162.159)" fill="#fff"/>
    <path id="Caminho_583" data-name="Caminho 583" d="M-941.148,434.962c.715,2.56,2.845,4.185,4.757,3.631s2.882-3.079,2.167-5.639-2.844-4.185-4.756-3.631S-941.863,432.4-941.148,434.962Z" transform="translate(-65.425 -96.966)" fill="#fff"/>
    <g id="Grupo_1286" data-name="Grupo 1286" transform="translate(-903.343 542.358)">
      <path id="Caminho_584" data-name="Caminho 584" d="M-663.693,745.983a21.014,21.014,0,0,0-2.811,5.255,10.07,10.07,0,0,0-.495,3.24,7.589,7.589,0,0,0,.832,3.35,9.159,9.159,0,0,0,4.95,4.27,14.681,14.681,0,0,0,6.087.722c.974-.056,1.908-.165,2.827-.27s1.845-.221,2.765-.341c1.838-.244,3.667-.516,5.487-.8,3.643-.563,7.256-1.159,10.867-1.614A89.4,89.4,0,0,1-622.361,759c1.8-.015,3.6.052,5.415.168s3.617.28,5.419.476a79.172,79.172,0,0,1,20.99,5.209l1.239.537c.42.178.824.36,1.2.546a17.383,17.383,0,0,1,2.2,1.327,16.986,16.986,0,0,1,3.706,3.535,10.056,10.056,0,0,1,2.034,4.439,6.4,6.4,0,0,1-.941,4.484,10.539,10.539,0,0,1-3.618,3.331,13.6,13.6,0,0,1-4.81,1.667,30.577,30.577,0,0,1-10.581-.407,71,71,0,0,1-10.428-2.948,12.584,12.584,0,0,1-4.374-2.554,5.626,5.626,0,0,1-.726-.912,2.518,2.518,0,0,1-.4-.9.766.766,0,0,1,.149-.611,1.2,1.2,0,0,1,.629-.444,2.5,2.5,0,0,1,1.923.34,6.779,6.779,0,0,1,1.837,1.548,7.658,7.658,0,0,1,1.827,4.48,4.779,4.779,0,0,1-1.872,4.092,10.66,10.66,0,0,1-4.721,1.786,46.611,46.611,0,0,1-5.382.465l-2.725.039c-.909-.023-1.818-.027-2.727-.064a96.076,96.076,0,0,1-10.877-1.124c-7.224-1.132-14.358-2.889-21.533-4.514-14.346-3.241-28.761-6.259-43.317-8.457-7.274-1.1-14.592-2-21.95-2.391a117.861,117.861,0,0,0-22.056.744,88.143,88.143,0,0,0-10.835,2.13,66.872,66.872,0,0,0-10.376,3.755,47.731,47.731,0,0,0-17.357,13.317,47.628,47.628,0,0,1,17.443-13.129,66.582,66.582,0,0,1,10.369-3.643,87.8,87.8,0,0,1,10.808-2.02,117.4,117.4,0,0,1,21.968-.535c7.324.456,14.608,1.423,21.857,2.589,14.5,2.33,28.862,5.477,43.163,8.85,7.145,1.687,14.287,3.52,21.583,4.735a97.592,97.592,0,0,0,11.037,1.244c.927.048,1.855.06,2.784.092l2.788-.015a47.915,47.915,0,0,0,5.6-.434,12.239,12.239,0,0,0,5.493-2.066,6.438,6.438,0,0,0,1.982-2.437,6.761,6.761,0,0,0,.609-3.072,9.421,9.421,0,0,0-2.194-5.58,8.577,8.577,0,0,0-2.342-2,5.3,5.3,0,0,0-1.553-.589,3.708,3.708,0,0,0-1.817.081,3.092,3.092,0,0,0-1.587,1.116,2.765,2.765,0,0,0-.45.939,2.674,2.674,0,0,0-.052,1.053,4.278,4.278,0,0,0,.649,1.628,7.521,7.521,0,0,0,.974,1.25,14.379,14.379,0,0,0,5.03,3.048,72.8,72.8,0,0,0,10.744,3.147,32.6,32.6,0,0,0,11.335.52,15.81,15.81,0,0,0,5.561-1.88,12.732,12.732,0,0,0,4.434-4.04,8.956,8.956,0,0,0,1.22-2.9,8.748,8.748,0,0,0,.1-3.156,12.381,12.381,0,0,0-2.432-5.522,19.369,19.369,0,0,0-4.2-4.089,19.881,19.881,0,0,0-2.5-1.538c-.447-.228-.88-.426-1.3-.611l-1.285-.57A81.73,81.73,0,0,0-611.2,756.97c-1.849-.22-3.7-.42-5.559-.541s-3.722-.224-5.6-.226a92.21,92.21,0,0,0-11.167.712c-3.689.429-7.335,1-10.962,1.522-1.814.265-3.623.516-5.431.739-.9.109-1.807.22-2.71.308s-1.8.19-2.663.231a11.683,11.683,0,0,1-4.781-.567,6,6,0,0,1-3.219-2.769,5.366,5.366,0,0,1-.1-4.14,18.052,18.052,0,0,1,2.446-4.392Z" transform="translate(785.394 -745.983)" fill="#296b8c"/>
    </g>
    <path id="Caminho_585" data-name="Caminho 585" d="M-415.026,363.528c39.161,1.762,33.538-37.95,33.538-37.95h-21.624s-2,.427-5.21,1.2l-10.1,5.631S-408.154,338.271-415.026,363.528Z" transform="translate(-241.514 -62.07)" fill="#d3716e"/>
    <path id="Caminho_586" data-name="Caminho 586" d="M-596.6,427.168l-1.126,4.36-8.334,6.769a9.39,9.39,0,0,0-4.337-7.4l.789-.287,2.083,1.836,4.787-1.893.62-3.614Z" transform="translate(-176.874 -96.199)" fill="#d3716e"/>
    <path id="Caminho_587" data-name="Caminho 587" d="M-445.087,305.4c25.909,30.013,60.372-8.537,60.372-8.537l-.689-21.257-.662-20.5s-39.194-30.062-56.987-19.275c0,0-10.86,15.365-12.758,34.213C-456.967,281.431-454.852,294.091-445.087,305.4Z" transform="translate(-228.827 -31.065)" fill="#ffddc4"/>
    <path id="Caminho_588" data-name="Caminho 588" d="M-455.666,270.046c16.576,12.611,57.108.908,68.34-.771l1.406-14.167s-39.194-30.062-56.987-19.275C-442.908,235.833-453.768,251.2-455.666,270.046Z" transform="translate(-228.972 -31.065)" fill="#d3716e"/>
    <path id="Caminho_589" data-name="Caminho 589" d="M-486.906,190.806c2.1,8.976,7.433,18.215,14.826,23.653,15.313,11.262,34.038,7.9,51.405,11.641,10.258,2.209,28.923,7.978,26.246,22.186-.6,3.18-1.953,6.581-2.439,10.718a29.362,29.362,0,0,0,.628,10.1,38.6,38.6,0,0,0,3.108,8.543c4.561,9.08,13.076,17.051,23.415,17.953,15.286,1.335,27.95-12.963,28.288-27.783a25.339,25.339,0,0,0-1.48-9.183c-3.622-10.009-14.59-15.737-24.658-16.294,5.947.33,12.447-2.044,15.806-7.262,7.542-11.723-4.21-25.078-14.5-29.6-6.048-2.657-18.664-4.178-21.638,3.938.413-1.322,5.615-20.218-28.078-45.474A56.305,56.305,0,0,0-463,154.418c-7.967,2-15.8,6.078-20.4,13C-487.865,174.14-488.757,182.91-486.906,190.806Z" transform="translate(-218.148 -3.887)" fill="#5d3350"/>
    <g id="Grupo_1287" data-name="Grupo 1287" transform="translate(-709.783 160.235)">
      <path id="Caminho_590" data-name="Caminho 590" d="M-395.216,246.158a31.143,31.143,0,0,0-7.713-6.5,38.822,38.822,0,0,0-9.017-3.878,80.8,80.8,0,0,0-18.566-2.7c-6.063-.318-12.067-.56-17.975-1.252a74.554,74.554,0,0,1-17.242-3.923c-1.371-.534-2.743-1.073-4.074-1.7a37.345,37.345,0,0,1-3.9-2.014,37.339,37.339,0,0,1-6.994-5.257,37.043,37.043,0,0,1-9.358-14.795c-.227-.706-.517-1.395-.693-2.118l-.589-2.154c-.3-1.457-.645-2.912-.808-4.4a44.56,44.56,0,0,1-.391-4.462v-2.243c-.011-.75.093-1.492.133-2.24l.087-1.121.17-1.11.17-1.112.085-.557.131-.547.523-2.19.714-2.136a29.3,29.3,0,0,1,4.379-7.874,29.5,29.5,0,0,0-4.765,7.723l-.823,2.134-.633,2.2-.159.551-.113.561-.225,1.124-.224,1.126-.141,1.138c-.076.76-.216,1.518-.24,2.283l-.106,2.3a45.628,45.628,0,0,0,.191,4.594c.1,1.535.383,3.046.626,4.565l.506,2.253c.15.757.415,1.482.618,2.226a39.114,39.114,0,0,0,9.174,16.037,40.021,40.021,0,0,0,7.227,5.968A40.346,40.346,0,0,0-471.172,229c1.373.73,2.792,1.365,4.216,1.994a78.272,78.272,0,0,0,17.889,4.947c6.085.994,12.175,1.515,18.182,2.107a75.74,75.74,0,0,1,17.177,3.27,32.853,32.853,0,0,1,7.474,3.615,24.718,24.718,0,0,1,5.883,5.426,3.317,3.317,0,0,0,4.655.584,3.317,3.317,0,0,0,.584-4.655c-.028-.036-.057-.072-.086-.107Z" transform="translate(493.575 -169.879)" fill="#5d3350"/>
    </g>
    <path id="Caminho_591" data-name="Caminho 591" d="M-349.751,327.5a38.6,38.6,0,0,0,3.108,8.543c4.561,9.08,13.076,17.051,23.415,17.953,15.286,1.335,27.95-12.963,28.288-27.783C-307.374,333.749-328.268,341.465-349.751,327.5Z" transform="translate(-264.635 -62.283)" fill="#0d1b3b"/>
    <g id="Grupo_1288" data-name="Grupo 1288" transform="translate(-696.168 163.004)">
      <path id="Caminho_592" data-name="Caminho 592" d="M-382.965,258.147a30.671,30.671,0,0,0-4.06-19.922,26.648,26.648,0,0,0-6.956-7.607l-1.049-.76c-.362-.234-.738-.448-1.106-.673s-.734-.453-1.118-.649l-1.163-.561a36.9,36.9,0,0,0-4.669-1.806c-6.311-1.943-12.708-2.576-18.942-3.2-3.129-.31-6.2-.62-9.271-1.071-3.09-.44-6.155-.923-9.177-1.554a66.514,66.514,0,0,1-8.888-2.42,39.736,39.736,0,0,1-8.225-3.925,32.855,32.855,0,0,1-6.921-5.9,32.82,32.82,0,0,1-5.123-7.576,24.752,24.752,0,0,1-1.63-4.268,6.865,6.865,0,0,1-.266-1.1l-.215-1.117c-.072-.373-.07-.752-.109-1.128a10.82,10.82,0,0,1-.064-1.133,14.7,14.7,0,0,1,2.693-8.558,18.381,18.381,0,0,1,3.091-3.416,23.226,23.226,0,0,1,3.838-2.619,29.906,29.906,0,0,1,8.8-3.118,30.123,30.123,0,0,0-8.976,2.788,23.685,23.685,0,0,0-4.02,2.517,19,19,0,0,0-3.34,3.41,15.638,15.638,0,0,0-3.208,8.978,11.972,11.972,0,0,0,.019,1.214c.025.4.009.815.07,1.215l.181,1.2a7.64,7.64,0,0,0,.237,1.189,26.2,26.2,0,0,0,1.541,4.572,34.5,34.5,0,0,0,5.063,8.167,34.9,34.9,0,0,0,7.1,6.551,42.181,42.181,0,0,0,8.544,4.506,69.348,69.348,0,0,0,9.144,2.886c3.09.774,6.2,1.39,9.3,1.958,3.117.586,6.271,1.029,9.368,1.461,6.2.866,12.337,1.757,17.968,3.747a32.41,32.41,0,0,1,4.031,1.744l.937.5c.308.172.594.383.891.571s.595.379.883.582l.828.656a21.622,21.622,0,0,1,5.406,6.409,25.082,25.082,0,0,1,2.662,16.364Z" transform="translate(473.048 -174.054)" fill="#d3716e"/>
    </g>
    <path id="Caminho_593" data-name="Caminho 593" d="M-364.255,287.769s7.2-10.465,20.982-2.222,1.932,29.412-18.94,23.586S-364.255,287.769-364.255,287.769Z" transform="translate(-257.127 -47.525)" fill="#ffddc4"/>
    <g id="Grupo_1289" data-name="Grupo 1289" transform="translate(-619.305 237.966)">
      <path id="Caminho_594" data-name="Caminho 594" d="M-353.791,301.488a15.9,15.9,0,0,1,.137-7.326,8.643,8.643,0,0,1,1.634-3.146A6.842,6.842,0,0,1-349.129,289a9.494,9.494,0,0,1,3.673-.574,8.266,8.266,0,0,1,3.616,1.082,9.063,9.063,0,0,1,4.378,6.283,9.478,9.478,0,0,0-3.93-6.98,9.3,9.3,0,0,0-3.921-1.62,8.9,8.9,0,0,0-2.163-.1,10.966,10.966,0,0,0-2.145.325,8.718,8.718,0,0,0-3.9,2.172A10.9,10.9,0,0,0-356,293.33a18.729,18.729,0,0,0-1.075,8.638,1.66,1.66,0,0,0,1.8,1.51,1.661,1.661,0,0,0,1.51-1.8q-.008-.087-.024-.169Z" transform="translate(357.167 -287.07)" fill="#d3716e"/>
    </g>
    <g id="Grupo_1290" data-name="Grupo 1290" transform="translate(-654.774 326.61)">
      <path id="Caminho_595" data-name="Caminho 595" d="M-388.632,424.842c-2.231.589-4.369,1.195-6.5,1.676a30.3,30.3,0,0,1-6.293.862,9.251,9.251,0,0,1-5.552-1.522,12.457,12.457,0,0,1-3.647-5.146,9.906,9.906,0,0,0,.4,3.488,7.926,7.926,0,0,0,1.853,3.214,8.234,8.234,0,0,0,3.253,2.04,11.368,11.368,0,0,0,3.7.579,18.6,18.6,0,0,0,6.923-1.537A20.785,20.785,0,0,0-388.632,424.842Z" transform="translate(410.642 -420.712)" fill="#d3716e"/>
    </g>
    <g id="Grupo_1291" data-name="Grupo 1291" transform="translate(-776.542 301.256)">
      <path id="Caminho_596" data-name="Caminho 596" d="M-593.9,412.845l3.818-.945,5.432-14.815-4.078-14.6h-5.331v1.327h4.324l3.692,13.215-5.042,13.752-3.133.776Z" transform="translate(594.223 -382.488)" fill="#5d3350"/>
    </g>
    <g id="Grupo_1292" data-name="Grupo 1292" transform="translate(-793.049 299.329)">
      <path id="Caminho_597" data-name="Caminho 597" d="M-610.429,417.623a.657.657,0,0,0,.261-.054l4.886-2.1a.662.662,0,0,0,.382-.45l4.885-19.7a.666.666,0,0,0,.009-.278l-2.7-14.915a.658.658,0,0,0-.308-.449.664.664,0,0,0-.541-.066l-7.069,2.2.395,1.266,6.352-1.977,2.544,14.037-4.772,19.243-4.187,1.8-3.4-3.149,1.537-12.974a.664.664,0,0,0-.348-.663.664.664,0,0,0-.744.083l-5.857,5.048.866,1,4.564-3.934-1.376,11.614a.663.663,0,0,0,.208.565l3.969,3.671A.663.663,0,0,0-610.429,417.623Z" transform="translate(619.111 -379.583)" fill="#5d3350"/>
    </g>
    <g id="Grupo_1293" data-name="Grupo 1293" transform="translate(-758.977 263.085)">
      <path id="Caminho_598" data-name="Caminho 598" d="M-561.263,356.44c2.521-21.581-5.13-31.106-5.456-31.5l-1.023.845c.076.093,7.611,9.54,5.161,30.5Z" transform="translate(567.742 -324.94)" fill="#5d3350"/>
    </g>
    <g id="Grupo_1294" data-name="Grupo 1294" transform="translate(-745.473 459.122)">
      <path id="Caminho_599" data-name="Caminho 599" d="M-547.229,648.8c.242-.029,24.4-2.98,37.191-15.911,12.266-12.395,19.038-11.021,19.107-11.005l29.171,7.481.33-1.285-29.181-7.483c-.305-.074-7.47-1.675-20.369,11.359-12.465,12.6-36.164,15.5-36.4,15.527Z" transform="translate(547.383 -620.494)" fill="#5d3350"/>
    </g>
    <g id="Grupo_1295" data-name="Grupo 1295" transform="translate(-725.599 475.695)">
      <rect id="Retngulo_124" data-name="Retngulo 124" width="33.511" height="1.327" transform="matrix(0.789, -0.614, 0.614, 0.789, 0, 20.577)" fill="#5d3350"/>
    </g>
    <path id="Caminho_600" data-name="Caminho 600" d="M-323.946,585.051s-35.1-1.614-70.094,4.36c0,0,44.865-26.7,46.217-53.4C-347.823,536.014-344.67,575.643-323.946,585.051Z" transform="translate(-249.723 -132.926)" fill="#d3716e"/>
    <path id="Caminho_601" data-name="Caminho 601" d="M-570.017,503.047s11.852,27.4,15.09,56.378c0,0-.818-71.371-10.278-80.912A170.025,170.025,0,0,0-570.017,503.047Z" transform="translate(-190.469 -113.565)" fill="#d3716e"/>
    <g id="Grupo_1296" data-name="Grupo 1296" transform="translate(-697.196 296.944)">
      <path id="Caminho_602" data-name="Caminho 602" d="M-473.27,386.213a1.326,1.326,0,0,0,1.317-1.189l.789-7.572A1.327,1.327,0,0,0-472.346,376a1.328,1.328,0,0,0-1.457,1.182l-.788,7.572a1.327,1.327,0,0,0,1.182,1.457A1.225,1.225,0,0,0-473.27,386.213Z" transform="translate(474.599 -375.987)" fill="#f1ba69"/>
    </g>
    <g id="Grupo_1297" data-name="Grupo 1297" transform="translate(-702.153 298.092)">
      <path id="Caminho_603" data-name="Caminho 603" d="M-478.265,385.42a1.324,1.324,0,0,0,.584-.136,1.327,1.327,0,0,0,.606-1.776l-2.478-5.048a1.327,1.327,0,0,0-1.776-.606,1.326,1.326,0,0,0-.606,1.775l2.478,5.048A1.327,1.327,0,0,0-478.265,385.42Z" transform="translate(482.071 -377.718)" fill="#f1ba69"/>
    </g>
    <g id="Grupo_1298" data-name="Grupo 1298" transform="translate(-527.918 392.745)">
      <path id="Caminho_604" data-name="Caminho 604" d="M-218.061,529.727a1.324,1.324,0,0,0,1.03-.49l5.406-6.655a1.326,1.326,0,0,0-.193-1.866,1.327,1.327,0,0,0-1.866.193l-5.406,6.654a1.328,1.328,0,0,0,.193,1.867A1.322,1.322,0,0,0-218.061,529.727Z" transform="translate(219.388 -520.42)" fill="#f1ba69"/>
    </g>
    <g id="Grupo_1299" data-name="Grupo 1299" transform="translate(-532.422 400.776)">
      <path id="Caminho_605" data-name="Caminho 605" d="M-224.852,535.181h13.74a1.326,1.326,0,0,0,1.327-1.327,1.327,1.327,0,0,0-1.327-1.327h-13.74a1.327,1.327,0,0,0-1.327,1.327A1.326,1.326,0,0,0-224.852,535.181Z" transform="translate(226.179 -532.528)" fill="#f1ba69"/>
    </g>
    <g id="Grupo_1300" data-name="Grupo 1300" transform="translate(-645.785 449.288)">
      <path id="Caminho_606" data-name="Caminho 606" d="M-305.411,614.794a5.785,5.785,0,0,0-.994-1.209,10.5,10.5,0,0,0-1.169-.989,9.136,9.136,0,0,0-1.261-.854c-.433-.258-.865-.543-1.311-.781-.9-.425-1.815-.881-2.743-1.273-.934-.354-1.878-.692-2.828-1.028-.952-.32-1.916-.546-2.88-.81s-1.935-.52-2.909-.683c-1.946-.34-3.907-.776-5.867-.949s-3.931-.452-5.9-.494-3.931-.064-5.895-.055c-1.962.06-3.916.2-5.871.289l-2.93.145c-.976.043-1.947.144-2.92.213-3.891.3-7.784.539-11.649,1.011-3.869.443-7.739.849-11.58,1.449-7.7,1.079-15.349,2.438-22.978,3.856l.068.459q5.8-.52,11.576-1.1l2.89-.283,2.9-.21,5.79-.415c3.852-.345,7.715-.494,11.572-.679,3.853-.263,7.709-.289,11.558-.379,7.7-.086,15.371.453,22.951.814l1.428.05c.474.027.943.082,1.415.117l2.836.216c.956.038,1.882.183,2.821.288.933.125,1.889.191,2.816.34s1.851.319,2.79.462c.924.173,1.823.416,2.753.617a16.661,16.661,0,0,1,5.136,2.127Z" transform="translate(397.089 -605.668)" fill="#fff"/>
    </g>
    <g id="Grupo_1301" data-name="Grupo 1301" transform="translate(-735.515 353.097)">
      <path id="Caminho_607" data-name="Caminho 607" d="M-511.4,460.646a87.9,87.9,0,0,0-5.888,9.631c-1.783,3.318-3.41,6.724-4.907,10.191q-2.212,5.213-4.007,10.609-1.741,5.405-3.049,10.952-1.323,5.538-2.257,11.184a72.4,72.4,0,0,0-.863,11.395A81.711,81.711,0,0,0-531.485,536a64.843,64.843,0,0,0,2.6,11.092l.458-.072c.147-7.576.2-14.935.694-22.277.572-7.313.814-14.678,2.116-21.963a143.286,143.286,0,0,1,5.585-21.475,119.482,119.482,0,0,1,9.013-20.4Z" transform="translate(532.37 -460.646)" fill="#fff"/>
    </g>
    <g id="Grupo_1302" data-name="Grupo 1302" transform="translate(-725.265 353.227)">
      <path id="Caminho_608" data-name="Caminho 608" d="M-516.917,460.842l1.576,15.732,2.608-.485Z" transform="translate(516.917 -460.842)" fill="#fff"/>
    </g>
    <g id="Grupo_1303" data-name="Grupo 1303" transform="translate(-689.234 342.71)">
      <path id="Caminho_609" data-name="Caminho 609" d="M-424.415,465.293c-2.533.806-5.025,1.706-7.516,2.609-2.481.925-4.961,1.852-7.418,2.835-2.467.956-4.908,1.973-7.354,2.979s-4.865,2.073-7.3,3.106l1.8.855c-.741-2.759-1.551-5.5-2.323-8.249-.822-2.737-1.62-5.479-2.486-8.2l-1.3-4.086-1.356-4.071c-.941-2.7-1.87-5.41-2.927-8.082.464,2.836,1.054,5.636,1.634,8.439l.925,4.19.981,4.174c.655,2.783,1.378,5.547,2.075,8.318.748,2.757,1.459,5.524,2.239,8.272a1.308,1.308,0,0,0,1.616.922,1.473,1.473,0,0,0,.181-.066c2.409-1.09,4.837-2.135,7.23-3.262s4.8-2.222,7.175-3.389c2.387-1.14,4.75-2.334,7.112-3.532C-429.075,467.831-426.724,466.609-424.415,465.293Z" transform="translate(462.595 -444.985)" fill="#fff"/>
    </g>
    <path id="Caminho_610" data-name="Caminho 610" d="M-558.671,399.274l-.068.014A.5.5,0,0,0-558.671,399.274Z" transform="translate(-194.266 -86.884)" fill="#d3716e"/>
    <g id="Grupo_1304" data-name="Grupo 1304" transform="translate(-712.16 480.308)">
      <path id="Caminho_611" data-name="Caminho 611" d="M-491.083,678.079q1.29,0,2.846-.153c8.863-.871,16.606-6.98,18.16-8.276l20.462,5.414.34-1.283-20.8-5.5a.659.659,0,0,0-.606.143c-.083.072-8.406,7.272-17.687,8.184-5.45.536-6.885-.533-7.25-1.018a1.051,1.051,0,0,1-.189-.884l3.269-5.325,21.79-15.872-.781-1.073-21.9,15.951a.678.678,0,0,0-.174.189l-3.378,5.5a.621.621,0,0,0-.052.1,2.362,2.362,0,0,0,.352,2.207C-495.827,677.514-493.951,678.079-491.083,678.079Z" transform="translate(497.16 -652.434)" fill="#5d3350"/>
    </g>
    <path id="Caminho_612" data-name="Caminho 612" d="M-965.534,562.058l.724,2.079,5.723,16.424,1.807,5.187,5.722,16.424,1.807,5.193,5.723,16.424,1.806,5.186,5.717,16.418,1.813,5.2,8.686,24.938,68.568.076c-47.161-44.973-30.816-88.445-14.069-112.961l-9.4-.056-3.316-.019-10.455-.063-3.316-.025-10.455-.063-3.31-.019-10.468-.07-3.31-.019-10.468-.07-3.3-.019-10.462-.063-3.322-.025-10.455-.063Z" transform="translate(-57.293 -141.695)" fill="#296b8c"/>
    <g id="Grupo_1308" data-name="Grupo 1308" transform="translate(-1135.69 305.593)">
      <g id="Grupo_1305" data-name="Grupo 1305" transform="translate(13.1)">
        <path id="Caminho_613" data-name="Caminho 613" d="M-1115.94,392.363l194.22,156.886L-1113.3,389.027Z" transform="translate(1115.94 -389.027)" fill="#fff"/>
      </g>
      <g id="Grupo_1306" data-name="Grupo 1306" transform="translate(57.076 64.919)">
        <path id="Caminho_614" data-name="Caminho 614" d="M-1049.639,491.9l194.881,156.052L-1045.676,486.9Z" transform="translate(1049.639 -486.901)" fill="#fff"/>
      </g>
      <g id="Grupo_1307" data-name="Grupo 1307" transform="translate(0 49.011)">
        <path id="Caminho_615" data-name="Caminho 615" d="M-1135.506,469.548l196.724,154.013-188.423-159.405a5.185,5.185,0,0,0-8.3,5.393Z" transform="translate(1135.69 -462.918)" fill="#fff"/>
      </g>
    </g>
    <g id="Grupo_1309" data-name="Grupo 1309" transform="translate(-831.558 247.416)">
      <rect id="Retngulo_125" data-name="Retngulo 125" width="15.245" height="2.653" transform="translate(0 10.67) rotate(-44.421)" fill="#296b8c"/>
    </g>
    <g id="Grupo_1310" data-name="Grupo 1310" transform="translate(-831.387 247.242)">
      <rect id="Retngulo_126" data-name="Retngulo 126" width="2.653" height="15.255" transform="translate(0 1.821) rotate(-43.357)" fill="#296b8c"/>
    </g>
    <g id="Grupo_1311" data-name="Grupo 1311" transform="translate(-970.353 273.431)">
      <path id="Caminho_616" data-name="Caminho 616" d="M-823.353,345.536a123.7,123.7,0,0,0-15.935-3.631,101.08,101.08,0,0,0-16.373-1.367,72.05,72.05,0,0,0-8.279.531,48.812,48.812,0,0,0-8.2,1.8,29.108,29.108,0,0,0-14.281,9.424l3.2,2.367a25.631,25.631,0,0,1,12.073-8.976,46.122,46.122,0,0,1,7.605-2.155,69.91,69.91,0,0,1,7.954-1,99.6,99.6,0,0,1,16.174.365A123.277,123.277,0,0,1-823.353,345.536Z" transform="translate(886.422 -340.538)" fill="#b8dee8"/>
    </g>
    <g id="Grupo_1312" data-name="Grupo 1312" transform="translate(-624.154 226.929)">
      <path id="Caminho_617" data-name="Caminho 617" d="M-362.307,273.2c-.006-.046.046.032.083.078a1.53,1.53,0,0,1,.122.18,3.976,3.976,0,0,1,.245.417,10.12,10.12,0,0,1,.446.933,11.723,11.723,0,0,1,.628,2.077,14.266,14.266,0,0,1,.17,4.567,17.488,17.488,0,0,1-.509,2.35,16.967,16.967,0,0,1-.832,2.332,9.329,9.329,0,0,1-.542,1.136l-.59,1.132c-.442.726-.921,1.438-1.392,2.171.651-.561,1.325-1.118,1.977-1.709l.919-.948a10.29,10.29,0,0,0,.893-.992,18.864,18.864,0,0,0,1.6-2.189,19.944,19.944,0,0,0,1.338-2.44,18.085,18.085,0,0,0,1.44-5.586,16.6,16.6,0,0,0,0-3.017c-.06-.511-.113-1.023-.226-1.545-.047-.259-.107-.524-.182-.8-.036-.135-.068-.266-.119-.416a4.827,4.827,0,0,0-.184-.506Z" transform="translate(364.478 -270.429)" fill="#5d3350"/>
    </g>
    <g id="Grupo_1313" data-name="Grupo 1313" transform="translate(-590.908 236.048)">
      <path id="Caminho_618" data-name="Caminho 618" d="M-310.061,289.965a.783.783,0,0,1-.092.1c.009-.025-.013-.026.015-.053l.112-.147a2.872,2.872,0,0,1,.381-.332,2.752,2.752,0,0,1,.492-.32,3.8,3.8,0,0,1,.571-.289l.63-.255.692-.189a10.849,10.849,0,0,1,1.468-.283,25.031,25.031,0,0,1,6.458.191,52.253,52.253,0,0,1,6.617,1.557c1.086.36,2.2.659,3.277,1.074l3.249,1.213-2.968-1.814c-.988-.618-2.034-1.128-3.056-1.7a54.119,54.119,0,0,0-6.463-2.9,28.322,28.322,0,0,0-7.213-1.6,14.966,14.966,0,0,0-1.975-.007l-1.016.078-1.041.19a7.977,7.977,0,0,0-1.057.286,7.189,7.189,0,0,0-1.071.414,8.329,8.329,0,0,0-1.08.588c-.183.123-.37.268-.551.407-.087.062-.2.174-.3.262l-.149.143c-.064.066-.157.176-.229.267Z" transform="translate(314.354 -284.178)" fill="#5d3350"/>
    </g>
    <g id="Grupo_1314" data-name="Grupo 1314" transform="translate(-609.279 186.753)">
      <path id="Caminho_619" data-name="Caminho 619" d="M-337.169,232.409c.18-.592.279-1.038.386-1.541s.191-.976.275-1.461c.159-.97.274-1.937.36-2.9a36.538,36.538,0,0,0,.042-5.764c-.044-.951-.191-1.9-.3-2.835-.183-.935-.306-1.865-.562-2.775a30.987,30.987,0,0,0-1.8-5.272,30.229,30.229,0,0,1,.479,5.432c.031.9-.07,1.8-.109,2.684-.113.889-.186,1.77-.361,2.643a33.207,33.207,0,0,1-1.293,5.1c-.283.824-.588,1.634-.926,2.423-.172.391-.342.783-.529,1.158s-.388.778-.549,1.033Z" transform="translate(342.052 -209.859)" fill="#5d3350"/>
    </g>
    <path id="Caminho_620" data-name="Caminho 620" d="M-940.316,749.058l16.4.158-20.793-59.623-13.925,4.745Z" transform="translate(-59.618 -184.638)" fill="#fff"/>
    <g id="Grupo_1315" data-name="Grupo 1315" transform="translate(-597.816 318.965)">
      <path id="Caminho_621" data-name="Caminho 621" d="M-283.829,413.233a24.044,24.044,0,0,0-7.586-3.347,24.937,24.937,0,0,0-4.173-.669,21.5,21.5,0,0,0-4.282.17,21.155,21.155,0,0,0-8.113,2.992,28.347,28.347,0,0,0-6.445,5.75c-.962,1.076-1.768,2.249-2.626,3.4-.419.58-.778,1.191-1.17,1.787s-.788,1.2-1.113,1.822a34.8,34.8,0,0,0-1.868,3.809c-.259.655-.533,1.305-.78,1.965s-.423,1.337-.635,2l-.576,2.019c-.164.679-.308,1.362-.45,2.044a40.893,40.893,0,0,0-.7,4.112c-.158,1.381-.338,2.755-.377,4.146s-.076,2.779,0,4.175l.457.084c.614-1.266,1.113-2.542,1.618-3.813l.354-.956.391-.944c.259-.628.5-1.258.74-1.888s.454-1.266.711-1.884l.742-1.863c.247-.619.462-1.248.712-1.862l.762-1.831c.46-1.239.993-2.436,1.493-3.642.46-1.23,1.017-2.4,1.514-3.6.229-.616.531-1.183.809-1.77s.547-1.182.865-1.743l.973-1.673c.311-.573.72-1.061,1.079-1.6,2.956-4.165,7.062-7.57,12.076-8.758a19.41,19.41,0,0,1,3.82-.574,23.3,23.3,0,0,1,3.921.2,25.376,25.376,0,0,1,7.613,2.334Z" transform="translate(324.77 -409.186)" fill="#fff"/>
    </g>
  </g>
</svg>
