<svg xmlns="http://www.w3.org/2000/svg" width="40" height="40" viewBox="0 0 40 40">
  <g id="Grupo_1329" data-name="Grupo 1329" transform="translate(-1777 -33)">
    <g id="icon-gerar-link">
      <g id="Grupo_1326" data-name="Grupo 1326" transform="translate(-6)">
        <g id="Grupo_155" data-name="Grupo 155" transform="translate(-68)">
          <circle id="Elipse_11" data-name="Elipse 11" cx="20" cy="20" r="20" transform="translate(1851 33)" fill="#3941ff"/>
        </g>
      </g>
      <g id="Grupo_1327" data-name="Grupo 1327" transform="translate(1425.349 -319.5)">
        <path id="Caminho_690" data-name="Caminho 690" d="M370.789,426.936c-.033.032-.067.06-.1.089a1.868,1.868,0,0,1-.376.529l-3.048,3.025a1.933,1.933,0,1,1-2.723-2.746l3.049-3.025a1.986,1.986,0,0,1,.529-.371c.03-.032.059-.067.091-.1l2.173-2.154a4.248,4.248,0,0,0-4.427.979l-3.05,3.025a4.253,4.253,0,0,0,5.989,6.039l3.052-3.026a4.25,4.25,0,0,0,1.013-4.419Z" transform="translate(0 -50.889)" fill="#fff"/>
        <path id="Caminho_691" data-name="Caminho 691" d="M432.406,363.221a4.254,4.254,0,0,0-6.013-.023l-3.05,3.024a4.26,4.26,0,0,0-1.016,4.42l2.051-2.034a2,2,0,0,1,.205-.173,1.9,1.9,0,0,1,.394-.566l3.049-3.026a1.933,1.933,0,1,1,2.723,2.745l-3.049,3.025a1.825,1.825,0,0,0-.744.594l-2.05,2.033a4.256,4.256,0,0,0,4.427-.979l3.049-3.025A4.259,4.259,0,0,0,432.406,363.221Z" transform="translate(-51.288 0)" fill="#fff"/>
        <path id="Caminho_692" data-name="Caminho 692" d="M406.166,413.577a1.156,1.156,0,0,0,1.175.288,1.143,1.143,0,0,0,.466-.281l.545-.541,1.807-1.792.3-.294,1.805-1.793.426-.42a1.159,1.159,0,0,0-1.169-1.927,1.141,1.141,0,0,0-.466.281l-.424.422-1.805,1.792-.3.293-1.806,1.793-.547.543A1.159,1.159,0,0,0,406.166,413.577Z" transform="translate(-37.489 -38.013)" fill="#fff"/>
      </g>
    </g>
  </g>
</svg>
