<svg xmlns="http://www.w3.org/2000/svg" viewBox="0 0 66 66"><defs><style>.cls-1{fill:#3ac963;}.cls-2{fill:#fff;}</style></defs><g id="Layer_2" data-name="Layer 2"><g id="icons"><circle class="cls-1" cx="33" cy="33" r="33"/><polygon class="cls-2" points="48.14 35.45 39.5 35.45 39.5 27.68 46.41 27.68 46.41 25.95 37.77 25.95 37.77 37.18 49.86 37.18 49.86 32 48.14 32 48.14 35.45"/><path class="cls-2" d="M37.77,51.86H49.86V40.64H37.77Zm1.73-9.5h8.64v7.78H39.5Z"/><polygon class="cls-2" points="48.14 21.64 39.5 21.64 39.5 13.86 46.41 13.86 46.41 12.14 37.77 12.14 37.77 23.36 49.86 23.36 49.86 18.18 48.14 18.18 48.14 21.64"/><polygon class="cls-2" points="41.84 16.71 40.62 17.93 43.86 21.17 50.51 13.57 49.21 12.43 43.78 18.65 41.84 16.71"/><path class="cls-2" d="M25.68,31.14a7.61,7.61,0,0,0,7.77-7.78V19.91a7.6,7.6,0,0,0-7.77-7.77,7.6,7.6,0,0,0-7.77,7.77v3.45A7.61,7.61,0,0,0,25.68,31.14Zm-6-11.23a5.85,5.85,0,0,1,6-6.05,5.86,5.86,0,0,1,6.05,6.05v3.45a5.85,5.85,0,0,1-6.05,6.05,5.84,5.84,0,0,1-6-6.05Z"/><path class="cls-2" d="M11,40.64v6.91h1.73V40.64c0-4.47,8.56-6.91,13-6.91A22,22,0,0,1,34.78,36l.8-1.53A23.51,23.51,0,0,0,25.68,32C21.36,32,11,34.49,11,40.64Z"/><polygon class="cls-2" points="45.95 28.21 43.82 30.35 41.68 28.21 40.46 29.43 42.6 31.57 40.46 33.71 41.68 34.93 43.82 32.79 45.95 34.93 47.18 33.71 45.04 31.57 47.18 29.43 45.95 28.21"/></g></g></svg>