<svg xmlns="http://www.w3.org/2000/svg" width="40" height="40" viewBox="0 0 40 40">
  <g id="Grupo_1351" data-name="Grupo 1351" transform="translate(-1854 -33)">
    <g id="btn-exit">
      <g id="Grupo_1350" data-name="Grupo 1350" transform="translate(3)">
        <circle id="Elipse_11" data-name="Elipse 11" cx="20" cy="20" r="20" transform="translate(1851 33)" fill="#f5f5f5"/>
      </g>
      <g id="icon-exit" transform="translate(1731.555 -89.445)">
        <g id="Grupo_1348" data-name="Grupo 1348" transform="translate(132.333 132.333)">
          <g id="Grupo_1347" data-name="Grupo 1347" transform="translate(0)">
            <g id="Grupo_1345" data-name="Grupo 1345" transform="translate(7.489 5.447)">
              <g id="Grupo_1343" data-name="Grupo 1343" transform="translate(7.489)">
                <path id="Caminho_732" data-name="Caminho 732" d="M232.258,177.954a.681.681,0,0,1-.481-1.162l3.6-3.6-3.6-3.6a.681.681,0,0,1,.963-.963l4.085,4.085a.681.681,0,0,1,0,.963l-4.085,4.085A.679.679,0,0,1,232.258,177.954Z" transform="translate(-231.577 -168.423)" fill="#253044"/>
              </g>
              <g id="Grupo_1344" data-name="Grupo 1344" transform="translate(0 4.085)">
                <path id="Caminho_733" data-name="Caminho 733" d="M193.53,196.851H182.637a.681.681,0,1,1,0-1.362H193.53a.681.681,0,1,1,0,1.362Z" transform="translate(-181.956 -195.489)" fill="#253044"/>
              </g>
            </g>
            <g id="Grupo_1346" data-name="Grupo 1346">
              <path id="Caminho_734" data-name="Caminho 734" d="M143.907,152.758h-8.17a3.408,3.408,0,0,1-3.4-3.4V135.737a3.408,3.408,0,0,1,3.4-3.4h8.17a.681.681,0,0,1,0,1.362h-8.17a2.045,2.045,0,0,0-2.042,2.042v13.616a2.045,2.045,0,0,0,2.042,2.042h8.17a.681.681,0,0,1,0,1.362Z" transform="translate(-132.333 -132.333)" fill="#253044"/>
            </g>
          </g>
        </g>
      </g>
    </g>
  </g>
</svg>
