<svg xmlns="http://www.w3.org/2000/svg" viewBox="0 0 28.8 22.45"><defs><style>.cls-1{fill:#dfe0ea;}</style></defs><title>iconAsset 1filtro</title><g id="Layer_2" data-name="Layer 2"><g id="Layer_1-2" data-name="Layer 1"><path class="cls-1" d="M28.71.62A1,1,0,0,0,27.77,0H7.36a1,1,0,0,0-1,.62.93.93,0,0,0,.23,1.12L14.5,9.6v7.75a1,1,0,0,0,.3.72l4.09,4.08a.94.94,0,0,0,.71.3,1,1,0,0,0,.4-.08.94.94,0,0,0,.62-.94V9.6l7.87-7.86A.92.92,0,0,0,28.71.62Z"/><rect class="cls-1" x="4.35" y="6.95" width="3.93" height="14.88" rx="0.8" ry="0.8" transform="translate(20.96 20.1) rotate(135)"/><rect class="cls-1" x="4.35" y="6.95" width="3.93" height="14.88" rx="0.8" ry="0.8" transform="translate(0.61 29.04) rotate(-135)"/></g></g></svg>