<svg xmlns="http://www.w3.org/2000/svg" width="141.782" height="149.155" viewBox="0 0 141.782 149.155">
  <g id="Grupo_1022" data-name="Grupo 1022" transform="translate(-39.376 -38.872)">
    <path id="Caminho_417" data-name="Caminho 417" d="M66.174,72.507a2.272,2.272,0,0,0,3.788-.352l2.695-5,5.165-2.118a2.3,2.3,0,0,0,.8-.494,2.275,2.275,0,0,0,.075-3.226l-3.922-4.11-.427-5.666h0a2.374,2.374,0,0,0-.225-.823,2.279,2.279,0,0,0-3.047-1.063l-5.12,2.463-5.449-1.325a2.32,2.32,0,0,0-.913-.067,2.279,2.279,0,0,0-1.954,2.568l.764,5.636-2.972,4.806a2.154,2.154,0,0,0-.322.823A2.282,2.282,0,0,0,56.952,67.2l5.584,1.011ZM62.611,56l3.069.749a2.309,2.309,0,0,0,1.527-.165h0l2.837-1.362.232,3.136a2.286,2.286,0,0,0,.711,1.5l2.1,2.193-2.919,1.19a2.262,2.262,0,0,0-1.138,1.033h-.007l-1.49,2.77-2.036-2.4a2.239,2.239,0,0,0-1.467-.786l-2.972-.539,1.662-2.687a2.293,2.293,0,0,0,.314-1.5h.007Z" transform="translate(101.826 68.452)" fill="#fff"/>
    <path id="Caminho_418" data-name="Caminho 418" d="M56.178,97.914a2.289,2.289,0,0,0,2.283-2.291,99.165,99.165,0,0,1,2.47-23.916A58.147,58.147,0,0,1,67.2,56.191a2.282,2.282,0,0,0-3.952-2.283A62.385,62.385,0,0,0,56.5,70.615a103.608,103.608,0,0,0-2.612,25.009A2.291,2.291,0,0,0,56.178,97.914Z" transform="translate(94.113 90.113)" fill="#fff"/>
    <path id="Caminho_419" data-name="Caminho 419" d="M46.041,67.147l2.695,5.008a2.272,2.272,0,0,0,3.788.352l3.645-4.3L61.745,67.2a2.271,2.271,0,0,0,1.841-2.642,2.154,2.154,0,0,0-.322-.823l-2.972-4.806.764-5.636A2.279,2.279,0,0,0,59.1,50.724a2.32,2.32,0,0,0-.913.067L52.74,52.117l-5.12-2.463a2.279,2.279,0,0,0-3.047,1.063,2.374,2.374,0,0,0-.225.823h0l-.427,5.681-3.915,4.095a2.28,2.28,0,0,0,.067,3.219,2.349,2.349,0,0,0,.711.457V65Zm1.6-7.231a2.257,2.257,0,0,0,.778-1.557l.24-3.136,2.829,1.362h0a2.314,2.314,0,0,0,1.527.165l3.069-.756-.419,3.129h0a2.255,2.255,0,0,0,.322,1.5l1.654,2.687-2.972.539a2.257,2.257,0,0,0-1.467.786l-2.036,2.4-1.49-2.77h0a2.31,2.31,0,0,0-1.145-1.033l-2.927-1.2Z" transform="translate(0 68.452)" fill="#fff"/>
    <path id="Caminho_420" data-name="Caminho 420" d="M69.544,185.737a2.279,2.279,0,0,0,4.559,0V85.132l11.849,4.252a2.328,2.328,0,0,0,.913.165,2.288,2.288,0,0,0,2.223-2.343l-.457-15.1,9.237-11.947h0a2.2,2.2,0,0,0,.389-.756A2.294,2.294,0,0,0,96.7,56.576L82.217,52.354,73.729,39.9a2.333,2.333,0,0,0-.614-.629,2.284,2.284,0,0,0-3.174.6L61.43,52.354l-14.4,4.2a2.194,2.194,0,0,0-.838.412,2.278,2.278,0,0,0-.412,3.2l9.237,11.947-.449,15.1h0a2.174,2.174,0,0,0,.135.831,2.282,2.282,0,0,0,2.912,1.377l11.932-4.282ZM59.125,69.96h0l-7.688-9.941L63.5,56.5a2.318,2.318,0,0,0,1.25-.906h0l7.081-10.382L78.9,55.595a2.262,2.262,0,0,0,1.362.936L92.21,60.019,84.523,69.96a2.253,2.253,0,0,0-.472,1.534l.374,12.5L72.651,79.765a2.426,2.426,0,0,0-.621-.142h-.022l-.022-.008h-.3a2.36,2.36,0,0,0-.689.15L59.222,83.995,59.6,71.419A2.268,2.268,0,0,0,59.125,69.96Z" transform="translate(38.439 0)" fill="#fff"/>
    <path id="Caminho_421" data-name="Caminho 421" d="M40.954,57.8a2.28,2.28,0,0,0,.067,3.219,2.376,2.376,0,0,0,.711.464h0l6.752,2.77,3.466,6.437a2.275,2.275,0,0,0,3.788.344l4.686-5.532L67.6,64.21a2.29,2.29,0,0,0,1.841-2.65,2.4,2.4,0,0,0-.322-.823L65.3,54.554l.981-7.238a2.279,2.279,0,0,0-1.954-2.568,2.331,2.331,0,0,0-.913.067L56.389,46.53l-6.58-3.174a2.285,2.285,0,0,0-3.047,1.063,2.221,2.221,0,0,0-.225.823h0l-.546,7.3Zm8.758-2.567a2.288,2.288,0,0,0,.778-1.557l.352-4.753,4.3,2.066h0a2.264,2.264,0,0,0,1.527.165l4.641-1.138-.644,4.738h.007a2.281,2.281,0,0,0,.314,1.5L63.5,60.318l-4.566.831a2.24,2.24,0,0,0-1.467.786l-3.084,3.638-2.261-4.2h0a2.265,2.265,0,0,0-1.145-1.026l-4.424-1.811Z" transform="translate(6.135 27.614)" fill="#fff"/>
    <path id="Caminho_422" data-name="Caminho 422" d="M66.615,133.4c0-21.221-1.976-37.7-5.337-51.283A127.241,127.241,0,0,0,47.542,48.084a2.284,2.284,0,0,0-3.952,2.291A122.6,122.6,0,0,1,56.839,83.2c3.279,13.227,5.2,29.343,5.2,50.2a2.287,2.287,0,1,0,4.574,0Z" transform="translate(25.341 52.342)" fill="#fff"/>
    <path id="Caminho_423" data-name="Caminho 423" d="M76.956,52.54l-.546-7.3h0a2.36,2.36,0,0,0-.217-.823,2.3,2.3,0,0,0-3.054-1.063l-6.58,3.174-7.021-1.714a2.32,2.32,0,0,0-.913-.067,2.279,2.279,0,0,0-1.954,2.568l.981,7.238-3.825,6.183a2.382,2.382,0,0,0-.314.823,2.278,2.278,0,0,0,1.841,2.65l7.171,1.295,4.686,5.532a2.281,2.281,0,0,0,3.8-.344l3.458-6.437,6.752-2.77h0a2.279,2.279,0,0,0,.778-3.683Zm-4.985,7.807a2.3,2.3,0,0,0-1.145,1.026h0l-2.261,4.2-3.084-3.638a2.223,2.223,0,0,0-1.467-.786l-4.566-.831,2.515-4.065a2.238,2.238,0,0,0,.314-1.5h.007l-.644-4.738,4.641,1.138a2.264,2.264,0,0,0,1.527-.165h0l4.3-2.066.352,4.753a2.319,2.319,0,0,0,.779,1.557l3.159,3.3Z" transform="translate(91.441 27.614)" fill="#fff"/>
    <path id="Caminho_424" data-name="Caminho 424" d="M43.132,53.067a2.287,2.287,0,0,0-.846,3.114,58,58,0,0,1,6.265,15.525,99.166,99.166,0,0,1,2.47,23.916,2.287,2.287,0,1,0,4.574,0,104.036,104.036,0,0,0-2.6-25.009,62.533,62.533,0,0,0-6.752-16.7A2.279,2.279,0,0,0,43.132,53.067Z" transform="translate(16.93 90.115)" fill="#fff"/>
    <path id="Caminho_425" data-name="Caminho 425" d="M73.478,47.248a2.278,2.278,0,0,0-3.114.838A127.243,127.243,0,0,0,56.636,82.108c-3.368,13.586-5.345,30.061-5.345,51.283a2.291,2.291,0,1,0,4.581,0c0-20.854,1.916-36.97,5.195-50.2A123,123,0,0,1,74.316,50.355,2.27,2.27,0,0,0,73.478,47.248Z" transform="translate(77.277 52.346)" fill="#fff"/>
  </g>
</svg>
