<svg xmlns="http://www.w3.org/2000/svg" width="64.742" height="97.589" viewBox="0 0 64.742 97.589">
  <g id="icon-expirou" transform="translate(-579.639 -330.086)">
    <path id="Path_693" data-name="Path 693" d="M682.508,478.982l-1.995-1.508,1.7-1.832a1.017,1.017,0,1,0-1.491-1.385l-1.841,1.983-2.159-1.632a1.017,1.017,0,1,0-1.227,1.623l1.994,1.508-1.7,1.832a1.017,1.017,0,0,0,1.491,1.385l1.842-1.984,2.159,1.632a1.017,1.017,0,0,0,1.227-1.623Z" transform="translate(-79.626 -119.994)" fill="#ff422e"/>
    <path id="Path_694" data-name="Path 694" d="M822.946,462.15l-1.995-1.508,1.7-1.832a1.017,1.017,0,1,0-1.491-1.385l-1.842,1.984-2.159-1.632a1.017,1.017,0,1,0-1.227,1.623l1.995,1.508-1.7,1.832a1.017,1.017,0,0,0,1.491,1.385l1.841-1.983,2.159,1.632a1.017,1.017,0,1,0,1.227-1.623Z" transform="translate(-196.777 -105.953)" fill="#ff422e"/>
    <path id="Path_695" data-name="Path 695" d="M716.506,564.872a24.371,24.371,0,0,0-11.917-4.6,20.521,20.521,0,0,0-9.565,1.53,24.558,24.558,0,0,0-8.567,5.913,1.016,1.016,0,0,0,1.118,1.62c.075.516.175,1.1.308,1.711.612,2.811,1.6,4.83,2.938,6a4.523,4.523,0,0,0,3.056,1.176q.221,0,.448-.02c2.34-.205,3.744-1.543,4.292-4.09.453-2.105.344-4.98.2-8.619-.034-.89-.069-1.8-.1-2.764,5.509-1.326,11.086-.052,16.618,3.807a1.017,1.017,0,1,0,1.164-1.669Zm-19.718.7a38.069,38.069,0,0,1-.161,8.113c-.359,1.667-1.054,2.366-2.481,2.491a2.539,2.539,0,0,1-1.983-.659c-1.875-1.642-2.575-5.854-2.737-7.857a24.08,24.08,0,0,1,2.591-1.97l.812,7.144a1.017,1.017,0,0,0,2.022-.23l-.888-7.818a1.036,1.036,0,0,0-.051-.22,21.388,21.388,0,0,1,1.956-.914q.419-.17.838-.32C696.732,564.107,696.761,564.849,696.788,565.575Z" transform="translate(-88.9 -191.962)" fill="#ff422e"/>
    <path id="Path_696" data-name="Path 696" d="M643.525,386.846l-4.818-54.878a2.06,2.06,0,0,0-2.232-1.874l-43.134,3.787a6.19,6.19,0,0,0-1.36.721l-11.148,9.879a7.566,7.566,0,0,0-1.189,1.936l3.845,43.794c.409,1.819,7.274,10.54,7.274,10.54a1.526,1.526,0,0,0,2.027.439l12.732-7.525,14.194,4.349a1.526,1.526,0,0,0,1.464-.32l11.375-10.153,8.873.993a1.522,1.522,0,0,0,.505-.028l.07,0c.045,0,.09,0,.135-.006A1.526,1.526,0,0,0,643.525,386.846Zm-49.96-40.3-9.955-.446,9.2-8.152Zm38.652,37.886a1.526,1.526,0,0,0-1.186.378l-11.243,10.034-14.016-4.294a1.527,1.527,0,0,0-1.224.145l-12.1,7.149-5.979-8.539-3.527-40.179,12.223.548h.068a1.526,1.526,0,0,0,1.52-1.66l-.99-11.281,39.986-3.51,4.575,52.116Z" transform="translate(0 0)" fill="#ff422e"/>
    <path id="Path_697" data-name="Path 697" d="M661.208,746.558l-9.059-2.907a1.526,1.526,0,0,0-1.3.173l-12.636,8.211-13.2-6.373a1.527,1.527,0,0,0-1.232-.042l-13.04,5.229-4.675-9.472a2.049,2.049,0,0,0-2.445-.741c-.115.057-1.16.934-1.207,1.663L601,764.094a2.245,2.245,0,0,0,.412,1.458,2.015,2.015,0,0,0,1.5.843l55.864,3.627c.043,0,.085,0,.128,0a2.129,2.129,0,0,0,2.068-2.038l1.2-18.537c.016-.241.023-.865.017-.974C662.137,747.395,662.01,746.815,661.208,746.558Zm-3.223,20.354-53.882-3.5,1.1-16.9,3.43,6.95a1.526,1.526,0,0,0,1.937.741l13.727-5.5,13.37,6.454a1.526,1.526,0,0,0,1.495-.095l12.749-8.285,7.242,2.324q-.012.074-.017.151Z" transform="translate(-17.815 -342.352)" fill="#ff422e"/>
  </g>
</svg>
