<svg xmlns="http://www.w3.org/2000/svg" width="546.936" height="229.485" viewBox="0 0 546.936 229.485">
  <g id="icon-404" transform="translate(-102.832 -328.823)">
    <g id="character" transform="translate(287.919 333.975)">
      <g id="Group_1338" data-name="Group 1338" transform="translate(0 0)">
        <path id="Path_715" data-name="Path 715" d="M523.02,353.535,508.337,514.011l28.85-1.546,35.031,32.456,44.3-13.652,38.9,22.41,12.107-29.365,9.788-114.576v2.709l-41.019-2.709,4.4-46.929Z" transform="translate(-502.121 -347.029)" fill="#cffaff"/>
        <path id="Path_716" data-name="Path 716" d="M606.764,588.169l27.568-16.613,2.511,19.7-5.023,22.6-14.875.966Z" transform="translate(-554.113 -462.194)" fill="#ff422e" opacity="0.6"/>
        <path id="Path_717" data-name="Path 717" d="M604.15,482.188l-5.978-4.52,5.1-5.492a3.05,3.05,0,1,0-4.47-4.15l-5.52,5.945-6.471-4.892a3.05,3.05,0,1,0-3.678,4.865l5.978,4.52-5.1,5.493a3.05,3.05,0,0,0,4.47,4.15l5.52-5.945,6.472,4.892a3.05,3.05,0,1,0,3.678-4.865Z" transform="translate(-540.99 -406.992)" fill="#253044"/>
        <path id="Path_718" data-name="Path 718" d="M752.111,464.455l-5.979-4.52,5.1-5.492a3.05,3.05,0,0,0-4.47-4.15l-5.52,5.945-6.471-4.892a3.05,3.05,0,1,0-3.679,4.865l5.978,4.52-5.1,5.492a3.05,3.05,0,0,0,4.471,4.151l5.52-5.945,6.471,4.892a3.05,3.05,0,1,0,3.679-4.865Z" transform="translate(-619.147 -397.625)" fill="#253044"/>
        <path id="Path_719" data-name="Path 719" d="M684.449,571.934c-11.687-8.152-23.706-12.79-35.723-13.785a61.519,61.519,0,0,0-28.67,4.587,73.62,73.62,0,0,0-25.679,17.724,3.045,3.045,0,0,0,3.351,4.857c.224,1.546.524,3.29.924,5.129,1.835,8.426,4.8,14.479,8.806,17.992a13.559,13.559,0,0,0,9.16,3.526q.662,0,1.342-.059c7.015-.616,11.223-4.626,12.866-12.259,1.359-6.311,1.03-14.927.614-25.835-.1-2.668-.206-5.41-.292-8.284,16.513-3.975,33.229-.156,49.813,11.41a3.05,3.05,0,1,0,3.489-5Zm-59.1,2.109c.4,10.48.715,18.758-.482,24.319-1.076,5-3.16,7.091-7.436,7.467a7.611,7.611,0,0,1-5.944-1.974c-5.622-4.92-7.719-17.548-8.2-23.551a72.222,72.222,0,0,1,7.767-5.9l2.432,21.413a3.051,3.051,0,0,0,3.027,2.706,3.1,3.1,0,0,0,.348-.02,3.05,3.05,0,0,0,2.686-3.375l-2.662-23.433a3.069,3.069,0,0,0-.152-.659,64.133,64.133,0,0,1,5.864-2.741q1.255-.51,2.513-.958C625.178,569.642,625.262,571.866,625.345,574.043Z" transform="translate(-547.177 -455.004)" fill="#253044"/>
        <g id="Group_1337" data-name="Group 1337">
          <path id="Path_720" data-name="Path 720" d="M880.646,468.627a4.615,4.615,0,0,0-4.615,4.615c0,.139.007.276.019.412l-2.128,24.235.041,0a4.615,4.615,0,1,0,9.151.851,4.723,4.723,0,0,0-.034-.551l2.132-24.287a4.63,4.63,0,0,0,.044-.5l.014-.161h-.01A4.615,4.615,0,0,0,880.646,468.627Z" transform="translate(-695.215 -407.824)" fill="#253044"/>
          <path id="Path_721" data-name="Path 721" d="M678.308,483.51a4.615,4.615,0,0,0-9.2.515c0,.036,0,.072,0,.108H669.1l-2.907,33.111-17.923,25.6-36.255-21.428a4.573,4.573,0,0,0-3.668-.435l-42.014,12.873-33.7-30.079a4.575,4.575,0,0,0-3.555-1.133l-24.317,2.722,13.715-156.219,119.858,10.523-2.969,33.815a4.574,4.574,0,0,0,4.557,4.975c.068,0,.136,0,.205,0l35.37-1.585c1.566-.089,12.712-1.118,9.208-12.389-.166-.158-.332-.3-.5-.437a4.415,4.415,0,0,0-1.111-1.149l-33.416-29.611a18.628,18.628,0,0,0-4.076-2.16L516.311,339.768a6.176,6.176,0,0,0-6.691,5.616l-14.442,164.5a4.575,4.575,0,0,0,4.157,4.957c.136.012.271.018.405.018.071,0,.141,0,.211-.005a4.574,4.574,0,0,0,1.514.083l26.6-2.976,34.1,30.434a4.573,4.573,0,0,0,4.386.961L609.1,530.319l38.164,22.556a4.573,4.573,0,0,0,6.075-1.314s20.575-26.143,21.8-31.6l3.054-34.783a4.618,4.618,0,0,0,.146-1.156c0-.117-.006-.232-.015-.346l.015-.171ZM647.2,363.3l27.576,24.436-29.839,1.337Z" transform="translate(-495.16 -339.744)" fill="#253044"/>
        </g>
        <path id="Path_722" data-name="Path 722" d="M871.591,597.6a4.639,4.639,0,0,1-4.609-5.19l1.4-11.651a4.637,4.637,0,1,1,9.207,1.106l-1.4,11.651A4.638,4.638,0,0,1,871.591,597.6Z" transform="translate(-691.551 -464.897)" fill="#253044"/>
      </g>
    </g>
    <g id="text" transform="translate(102.832 328.823)">
      <g id="Group_1340" data-name="Group 1340">
        <g id="Group_1339" data-name="Group 1339">
          <path id="Path_723" data-name="Path 723" d="M243.068,424.352c0-5.065,4.467-8.741,10.621-8.741,5.857,0,10.623,3.921,10.623,8.741v29.016h.02v.02a5.139,5.139,0,1,0,10.279,0v-.02h.005V424.352c0-10.5-9.388-19.045-20.926-19.045a22.071,22.071,0,0,0-14.663,5.263,18.145,18.145,0,0,0-6.261,13.782v48.663H191.808l.426-.983c9.094-21.011,17.452-40.034,25.535-58.432,8.091-18.415,16.457-37.459,25.555-58.479l.01-.024a14.677,14.677,0,0,0,1.191-6.6,19.049,19.049,0,0,0-6.59-13.783,21.713,21.713,0,0,0-14.337-5.89,21.428,21.428,0,0,0-11.224,3.17,18.568,18.568,0,0,0-7.553,8.6l-.022.05-10.485,24.191.022.008a5.14,5.14,0,1,0,9.7,3.4l.026.009,10.2-23.526.061-.143c1.316-3.159,5.217-5.451,9.275-5.451a11.663,11.663,0,0,1,7.388,3.193,8.951,8.951,0,0,1,3.235,6.176,4.812,4.812,0,0,1-.3,2.423l-.044.1c-9.089,21-17.451,40.032-25.537,58.438S191.883,446.9,182.778,467.94l-6.657,15.379h66.947Z" transform="translate(-141.546 -328.823)" fill="#253044"/>
          <path id="Path_724" data-name="Path 724" d="M240.68,605.653H235.9v-.071H225.6a5.176,5.176,0,0,0,0,10.351v.023H240.68c5.512,0,10,3.78,10,8.427,0,4.9-4.391,8.742-10,8.742H225.6v36.709c0,5.065-4.468,8.742-10.623,8.742s-10.621-3.676-10.621-8.742V633.126H124.387c-7.058,0-11-5-11.237-9.844a34.921,34.921,0,0,1,2.109-6.822l.055-.117,12.479-28.793a5.08,5.08,0,0,0,.355-.819l.079-.181-.019-.007a5.167,5.167,0,0,0-9.823-3.194l-12.475,28.784,0,.009a43.008,43.008,0,0,0-3.034,10.225l-.038.323,0,.325c.1,10.035,8.191,20.416,21.552,20.416h69.664v26.406a18.148,18.148,0,0,0,6.261,13.783,23.064,23.064,0,0,0,29.328,0,18.147,18.147,0,0,0,6.262-13.783V643.429h4.778a20.949,20.949,0,0,0,14.241-5.38,18.368,18.368,0,0,0,6.058-13.665C260.979,614.056,251.873,605.653,240.68,605.653Z" transform="translate(-102.832 -461.461)" fill="#253044"/>
        </g>
        <path id="Path_725" data-name="Path 725" d="M192.62,450.848a5.155,5.155,0,0,1-4.733-7.182l5.216-12.171a5.152,5.152,0,0,1,9.47,4.059l-5.216,12.17A5.153,5.153,0,0,1,192.62,450.848Z" transform="translate(-147.54 -381.408)" fill="#253044"/>
        <path id="Path_726" data-name="Path 726" d="M150.741,524.206a5.155,5.155,0,0,1-4.7-7.253l15.373-34.423a5.152,5.152,0,1,1,9.408,4.2l-15.373,34.423A5.153,5.153,0,0,1,150.741,524.206Z" transform="translate(-125.419 -408.403)" fill="#253044"/>
      </g>
      <g id="Group_1342" data-name="Group 1342" transform="translate(388.787 2.065)">
        <path id="Path_727" data-name="Path 727" d="M1080.1,472.925a5.155,5.155,0,0,1-4.733-7.182l5.216-12.171a5.152,5.152,0,0,1,9.47,4.059l-5.216,12.17A5.154,5.154,0,0,1,1080.1,472.925Z" transform="translate(-1005.123 -395.135)" fill="#253044"/>
        <path id="Path_728" data-name="Path 728" d="M1038.221,546.283a5.154,5.154,0,0,1-4.7-7.253l15.372-34.424a5.152,5.152,0,1,1,9.408,4.2l-15.372,34.423A5.153,5.153,0,0,1,1038.221,546.283Z" transform="translate(-983.002 -422.13)" fill="#253044"/>
        <g id="Group_1341" data-name="Group 1341">
          <path id="Path_729" data-name="Path 729" d="M961.093,504.85c-.131,0-.261.007-.39.016H948.5c-7.058,0-11-5-11.238-9.844a34.916,34.916,0,0,1,2.109-6.822l.054-.118L999.657,349.1l.061-.143c1.316-3.159,5.216-5.451,9.274-5.451a11.664,11.664,0,0,1,7.388,3.193,8.947,8.947,0,0,1,3.234,6.175,4.816,4.816,0,0,1-.3,2.425l-.043.1c-3.221,7.441-6.35,14.635-9.409,21.645a5.046,5.046,0,0,0-.218.5l-.013.029h0a5.14,5.14,0,1,0,9.7,3.4l.049.017c3.037-6.96,6.144-14.1,9.341-21.489l.013-.029a14.69,14.69,0,0,0,1.185-6.592,19.048,19.048,0,0,0-6.589-13.782,21.714,21.714,0,0,0-14.337-5.89,21.426,21.426,0,0,0-11.223,3.169,18.567,18.567,0,0,0-7.555,8.6l-.019.044-60.18,138.854,0,.008a43,43,0,0,0-3.034,10.225l-.038.323,0,.325c.1,10.035,8.191,20.416,21.552,20.416h12.6v-.04a5.14,5.14,0,0,0,0-10.279Z" transform="translate(-926.94 -333.201)" fill="#253044"/>
          <path id="Path_730" data-name="Path 730" d="M1103.5,563.032h-4.778V514.368c0-10.5-9.388-19.044-20.927-19.044a22.073,22.073,0,0,0-14.664,5.262,18.148,18.148,0,0,0-6.261,13.783v48.663h-40.958l.425-.983q2.1-4.861,4.157-9.585a5.186,5.186,0,1,0-9.576-3.765l-.019-.007q-1.986,4.571-4.018,9.264l-6.656,15.379h66.948V514.368c0-5.065,4.467-8.741,10.621-8.741,5.857,0,10.623,3.921,10.623,8.741v58.967H1103.5c5.512,0,10,3.781,10,8.427,0,4.9-4.391,8.743-10,8.743h-15.081v36.709c0,5.065-4.467,8.742-10.623,8.742s-10.621-3.676-10.621-8.742V601.326c.012-.142.019-.285.019-.43a5.14,5.14,0,1,0-10.279,0c0,.043,0,.086,0,.129h-.047v26.189A18.147,18.147,0,0,0,1063.134,641a23.061,23.061,0,0,0,29.328,0,18.147,18.147,0,0,0,6.262-13.783V600.808h4.778a20.949,20.949,0,0,0,14.241-5.38,18.368,18.368,0,0,0,6.058-13.665C1123.8,571.434,1114.695,563.032,1103.5,563.032Z" transform="translate(-965.654 -418.84)" fill="#253044"/>
        </g>
        <path id="Path_731" data-name="Path 731" d="M1047.315,706.818h-25.5a5.152,5.152,0,0,1,0-10.3h25.5a5.152,5.152,0,0,1,0,10.3Z" transform="translate(-974.335 -525.115)" fill="#253044"/>
      </g>
    </g>
  </g>
</svg>
