<svg xmlns="http://www.w3.org/2000/svg" viewBox="0 0 66 66"><defs><style>.cls-1{fill:#be7ddd;}.cls-2{fill:#fff;}</style></defs><g id="Layer_2" data-name="Layer 2"><g id="icons"><circle class="cls-1" cx="33" cy="33" r="33"/><path class="cls-2" d="M30.82,33a7.6,7.6,0,0,0,7.77-7.77V21.77A7.6,7.6,0,0,0,30.82,14a7.6,7.6,0,0,0-7.77,7.77v3.46A7.6,7.6,0,0,0,30.82,33ZM24.77,21.77a5.85,5.85,0,0,1,6.05-6,5.84,5.84,0,0,1,6,6v3.46a5.84,5.84,0,0,1-6,6,5.85,5.85,0,0,1-6.05-6Z"/><path class="cls-2" d="M30.82,33.86c-4.58,0-15.55,2.49-15.55,8.64v6.91H17V42.5c0-4.47,9.13-6.91,13.82-6.91a23,23,0,0,1,5,.64l.39-1.69A25.44,25.44,0,0,0,30.82,33.86Z"/><path class="cls-2" d="M46.36,31.27A10.37,10.37,0,1,0,56.73,41.64,10.38,10.38,0,0,0,46.36,31.27Zm0,19A8.64,8.64,0,1,1,55,41.64,8.64,8.64,0,0,1,46.36,50.27Z"/><polygon class="cls-2" points="47.23 36.45 45.5 36.45 45.5 40.77 41.18 40.77 41.18 42.5 45.5 42.5 45.5 46.82 47.23 46.82 47.23 42.5 51.55 42.5 51.55 40.77 47.23 40.77 47.23 36.45"/></g></g></svg>